<svg xmlns="http://www.w3.org/2000/svg" viewBox="0 0 24.28 37.85"><defs><style>.cls-1{fill:#fff;}</style></defs><g id="Layer_2" data-name="Layer 2"><g id="Layer_1-2" data-name="Layer 1"><path class="cls-1" d="M7.06,2.22V1.39H4.54v1l0,0a.69.69,0,0,1,.47.65V8.38a2.51,2.51,0,0,1-.51,1.5,2.61,2.61,0,0,1-1.3.92,5.51,5.51,0,0,0-.69.27,1.35,1.35,0,0,0-.33.21,2.59,2.59,0,0,0-.62.86,2.36,2.36,0,0,0-.21,1V35.68a10.05,10.05,0,0,0,4.41.78,10.5,10.5,0,0,0,4.41-.8V13.14a2.52,2.52,0,0,0-.21-1,2.9,2.9,0,0,0-.62-.86,1.57,1.57,0,0,0-.33-.21,6.19,6.19,0,0,0-.69-.27,2.57,2.57,0,0,1-1.3-.92,2.45,2.45,0,0,1-.51-1.5V2.88a.7.7,0,0,1,.51-.66M11.6,36.07h0a.72.72,0,0,1-.31.59A10.73,10.73,0,0,1,5.8,37.85c-3.41,0-5.09-.94-5.44-1.17A.71.71,0,0,1,0,36.07V13.14a3.89,3.89,0,0,1,.33-1.56,4.09,4.09,0,0,1,.94-1.31,2.78,2.78,0,0,1,.67-.44,7.52,7.52,0,0,1,.87-.35A1.22,1.22,0,0,0,3.43,9a1.06,1.06,0,0,0,.23-.66V3.56l-.08,0a.69.69,0,0,1-.43-.64h0V.7A.69.69,0,0,1,3.84,0H7.75a.7.7,0,0,1,.7.7v2a.28.28,0,0,1,0,.09.25.25,0,0,1,0,.08.68.68,0,0,1-.52.67v.91a.41.41,0,0,1,0,.11V8.38A1.11,1.11,0,0,0,8.16,9a1.25,1.25,0,0,0,.63.44,8.31,8.31,0,0,1,.87.35,2.92,2.92,0,0,1,.66.44,3.94,3.94,0,0,1,.94,1.31,3.74,3.74,0,0,1,.34,1.56Z"/><path class="cls-1" d="M7.51,13.27a.69.69,0,1,1,.11,1.38c-.49,0-1,.07-1.58.07-.39,0-.79,0-1.17,0H4.81l-.45,0H4.29c-.6-.07-1.12-.16-1.43-.22l-.1,0-.06,0-.13,0h0l-.08,0-.26-.08a.69.69,0,1,1,.43-1.32l.21.06.22.06.08,0c.28.06.73.14,1.26.2h.08A13.3,13.3,0,0,0,6,13.33c.48,0,1,0,1.47-.06"/><path class="cls-1" d="M16.64,35.7h-.07a8.89,8.89,0,0,0-1.58.2l.55.18a11,11,0,0,0,3.07.37,11.05,11.05,0,0,0,3.07-.37,2.83,2.83,0,0,0,.82-.31s-2.09-.1-3.53-.16h-.39ZM14.32,16.29a23.07,23.07,0,0,0,.45,3.93,15.21,15.21,0,0,0,1.46,4.38s1,1.71,2.38,1.83A2.06,2.06,0,0,0,19.78,26,4.52,4.52,0,0,0,21,24.64s0,0,0,0a14.71,14.71,0,0,0,1.45-4.26,22.53,22.53,0,0,0,.46-4.06c-.19.06-.39.11-.61.16A19.81,19.81,0,0,1,14.32,16.29ZM22,15.08l.14,0A19.6,19.6,0,0,0,15.23,15L15,15A19.67,19.67,0,0,0,22,15.08ZM15,25.22v0l0,0h0l-.05-.1h0l0,0a4.48,4.48,0,0,1-.22-.44,19,19,0,0,1-1.27-4.1A23.82,23.82,0,0,1,13,15.13V15a.62.62,0,0,1,0-.19.68.68,0,0,1,.16-.33A3.12,3.12,0,0,1,15,13.64a20.08,20.08,0,0,1,7.33,0h.15a4.8,4.8,0,0,1,1.16.37,1.09,1.09,0,0,1,.67,1v.13a23,23,0,0,1-.49,5.45,16,16,0,0,1-1.61,4.69s0,0,0,0A6,6,0,0,1,20.6,27.1a3.89,3.89,0,0,1-1.3.63v6.52c2,.07,4.59.23,4.59,1.53,0,.74-.7,1.31-1.81,1.64a12.78,12.78,0,0,1-3.47.43,12.6,12.6,0,0,1-3.46-.43c-1.12-.34-1.82-.9-1.82-1.64,0-.57.44-.94,1.15-1.16a9.51,9.51,0,0,1,2-.3h.09l1.33-.07V27.72a3.35,3.35,0,0,1-1-.45l-.08-.05,0,0a5,5,0,0,1-.44-.33l-.05-.05A6.34,6.34,0,0,1,15,25.22Z"/><path class="cls-1" d="M5.18,35.4A.69.69,0,0,1,5.23,34a9.41,9.41,0,0,0,2.65-.27V26.89a.69.69,0,1,1,1.38,0v7.35h0a.68.68,0,0,1-.4.62,9.85,9.85,0,0,1-3.68.54"/><path class="cls-1" d="M20.6,23.25a.69.69,0,1,1-1.3-.48,22.12,22.12,0,0,0,1.17-4.67.68.68,0,1,1,1.36.13,23.71,23.71,0,0,1-1.23,5"/><path class="cls-1" d="M4.36,18a.66.66,0,0,1,.87-.27.64.64,0,0,1,.27.87L3.84,21.79l2.68,3.33a.63.63,0,0,1,0,.85L3.91,28.84a.64.64,0,0,1-.91.05A.66.66,0,0,1,3,28L5.18,25.5,2.59,22.28a.63.63,0,0,1-.08-.72Z"/><path class="cls-1" d="M15.33,16.21a.64.64,0,1,1,1.07-.71l2.39,3.57a.66.66,0,0,1,0,.75h0L17.35,21.7a.65.65,0,0,1-.91.13.64.64,0,0,1-.12-.9l1.14-1.52Z"/></g></g></svg>