<svg xmlns="http://www.w3.org/2000/svg" viewBox="0 0 37.41 25.94"><defs><style>.cls-1{fill:#fff;}</style></defs><g id="Layer_2" data-name="Layer 2"><g id="Layer_1-2" data-name="Layer 1"><path class="cls-1" d="M5,11.27l.12,0h.06l0,0h0a25.51,25.51,0,0,1,2.56-.4c.86-.08,1.75-.13,2.66-.14a.57.57,0,0,1,.31-.74L11,9.81a1.51,1.51,0,0,1,.47-.62,1.48,1.48,0,0,1,1.06-.29h.07a1.4,1.4,0,0,1,.38-.61,1.27,1.27,0,0,1,.93-.39A1.6,1.6,0,0,1,14.4,7a1.71,1.71,0,0,1,1.2-.46h.08a1.86,1.86,0,0,1,.37-.76,1.68,1.68,0,0,1,1.18-.59,1.84,1.84,0,0,1,.26-.88A1.58,1.58,0,0,1,18,3.74a2,2,0,0,1-.13-.34A1.61,1.61,0,0,1,17.83,3l-.28,0a1.78,1.78,0,0,1-.85-.21,2.11,2.11,0,0,1-.29-.2l-.24.13a1.91,1.91,0,0,1-.74.15,1.7,1.7,0,0,1-.61-.11,1.33,1.33,0,0,1-.24-.11h0a1.46,1.46,0,0,1-.42.4,1.85,1.85,0,0,1-1.59.16h0l-.07,0a1.45,1.45,0,0,1-.39.39,1.71,1.71,0,0,1-1,.32,2,2,0,0,1-.56-.08l-.12,0a1.63,1.63,0,0,1-.46.59,1.75,1.75,0,0,1-1.11.38,2.08,2.08,0,0,1-.5-.07l-.05,0a1.59,1.59,0,0,1-.46.69,1.71,1.71,0,0,1-1.17.43,2,2,0,0,1-.35,0,1.61,1.61,0,0,1-.43.67,1.69,1.69,0,0,1-1.2.46h-.2a1.79,1.79,0,0,1-.36.81,1.69,1.69,0,0,1-1.18.62H2.7a1.91,1.91,0,0,1-.31,1,1.65,1.65,0,0,1-.66.56,2.16,2.16,0,0,1,.1.44,1.82,1.82,0,0,1,0,.33,1.9,1.9,0,0,1,.49.18,1.53,1.53,0,0,1,.63.63A.65.65,0,0,1,3,11.9l0,0c.53-.19,1.17-.41,1.89-.61m14.88,6.52v-1a8.61,8.61,0,0,1-2,.92,23.62,23.62,0,0,1-7.25,1,23.6,23.6,0,0,1-7.24-1,8.61,8.61,0,0,1-2-.92v5.13a.94.94,0,0,0,.39.64,5,5,0,0,0,1.55.88,11.17,11.17,0,0,0,1.27.41,14,14,0,0,0,1.5.33,21.3,21.3,0,0,0,2.17.28c.75.06,1.53.1,2.33.1a27.92,27.92,0,0,0,2.83-.14A20.78,20.78,0,0,0,15.89,24a14.89,14.89,0,0,0,2.76-.93,3.43,3.43,0,0,0,.91-.64.84.84,0,0,0,.28-.54V17.79Zm1.4-2.94v2.92a.28.28,0,0,1,0,.09v4.06a2.13,2.13,0,0,1-.66,1.48,4.19,4.19,0,0,1-.84.67h0a8,8,0,0,1-.72.39l-.17.05a17,17,0,0,1-2.37.78l-.15.05a22.6,22.6,0,0,1-2.73.44,28.57,28.57,0,0,1-3,.15c-.84,0-1.66,0-2.44-.1s-1.57-.17-2.31-.3c-.57-.1-1.12-.22-1.62-.36a12.7,12.7,0,0,1-1.43-.46,6.54,6.54,0,0,1-2-1.14A2.26,2.26,0,0,1,0,21.92V20a.22.22,0,0,1,0-.08V17.47a.28.28,0,0,1,0-.09V14.7a2.08,2.08,0,0,1,.45-1.25,4.25,4.25,0,0,1,1.11-.95.9.9,0,0,1,.21-.08h0l.15-.07a.93.93,0,0,1-.21-.23A.18.18,0,0,0,1.62,12a.34.34,0,0,0-.17,0h-.1a.74.74,0,0,1-.59-.14L.58,11.7l-.15-.16a.68.68,0,0,1-.06-.81.45.45,0,0,0,.06-.28.3.3,0,0,0-.1-.21h0a.69.69,0,0,1-.18-.72,1.54,1.54,0,0,1,.09-.24L.37,9h0A.73.73,0,0,1,1,8.66h.08a.3.3,0,0,0,.17-.11.47.47,0,0,0,.07-.27s0,0,0-.06a.69.69,0,0,1,.17-.63l.23-.23a2.73,2.73,0,0,1,.25-.23h0A.68.68,0,0,1,2.62,7h.17A.25.25,0,0,0,3,6.88a.48.48,0,0,0,.08-.27v0A.68.68,0,0,1,3.35,6l.24-.18h0l.21-.14a.7.7,0,0,1,.71-.11l.07,0h.08a.32.32,0,0,0,.22-.07A.41.41,0,0,0,5,5.23a.69.69,0,0,1,.34-.57l.09,0h0l.31-.18a.7.7,0,0,1,.74,0l.07,0h.1a.34.34,0,0,0,.22-.07A.38.38,0,0,0,7,4.16a.68.68,0,0,1,.39-.57l.1,0,.47-.22a.72.72,0,0,1,.71.05l.07,0h.11A.29.29,0,0,0,9,3.35a.31.31,0,0,0,.12-.2.69.69,0,0,1,.43-.51l.14-.05.48-.18a.71.71,0,0,1,.67.11l.07,0,.13,0a.34.34,0,0,0,.2,0,.27.27,0,0,0,.1-.15.68.68,0,0,1,.49-.48l.16,0,.3-.08a.7.7,0,0,1,.66.16l.08.05h0l.12,0a.31.31,0,0,0,.19-.05.32.32,0,0,0,.11-.12A.67.67,0,0,1,14,1.39l.34,0,.27,0a.72.72,0,0,1,.61.17l.07,0a.27.27,0,0,0,.13,0l.16,0,.07-.05a.71.71,0,0,1,.57-.28h.46a.71.71,0,0,1,.61.35.3.3,0,0,0,.08.08.37.37,0,0,0,.17,0h.11l.07,0a.68.68,0,0,1,.68-.05,2.91,2.91,0,0,1,.35.18A2.69,2.69,0,0,1,19,2a.67.67,0,0,1,.23.78.48.48,0,0,0,0,.29.27.27,0,0,0,.1.15.68.68,0,0,1,.31.72c0,.1-.05.19-.08.29s0,.15-.08.22a.69.69,0,0,1-.59.47h0A.3.3,0,0,0,18.7,5a.4.4,0,0,0-.05.29v0h0a.66.66,0,0,1-.15.6c-.12.13-.24.26-.37.38l0,0a.71.71,0,0,1-.64.22h-.08c-.05,0,0,0,0,0a.29.29,0,0,0-.22.1.38.38,0,0,0-.08.27s0,0,0,0a.7.7,0,0,1-.26.57l-.22.16-.17.13a.73.73,0,0,1-.67.14l-.07,0H15.6a.32.32,0,0,0-.22.06.39.39,0,0,0-.11.26h0a.69.69,0,0,1-.33.54l-.57.34a.75.75,0,0,1-.62.05.32.32,0,0,0-.07.2h0a.58.58,0,0,1-.27.46l-.2.12-.16.1a.59.59,0,0,1-.58,0l-.05,0h-.05a.24.24,0,0,0-.2,0,.29.29,0,0,0-.11.21h0a.63.63,0,0,1-.24.38,25,25,0,0,1,3,.29,17.7,17.7,0,0,1,3.52.88l.06,0a7.5,7.5,0,0,1,1.69.9.54.54,0,0,1,.16.1,3,3,0,0,1,.73.8,2,2,0,0,1,.27,1h0A.76.76,0,0,1,21.24,14.85ZM5.39,12.57h0c-.71.2-1.32.4-1.81.59s-.94.36-1.2.48l0,0a2.75,2.75,0,0,0-.73.6.69.69,0,0,0-.17.42c0,.59.93,1.2,2.43,1.7a22.18,22.18,0,0,0,6.78.94,22.21,22.21,0,0,0,6.79-.94c1.5-.5,2.43-1.11,2.43-1.7h0v0a.57.57,0,0,0-.09-.28,1.31,1.31,0,0,0-.34-.38h0a6.31,6.31,0,0,0-1.48-.83l-.09,0a16.39,16.39,0,0,0-3.22-.81,28,28,0,0,0-3.93-.3h-.06a26.5,26.5,0,0,0-2.74.13A23.4,23.4,0,0,0,5.39,12.57Z"/><path class="cls-1" d="M14.92,15.22a.7.7,0,0,1,.5.85.71.71,0,0,1-.87.49,13.94,13.94,0,0,0-1.83-.34,19.75,19.75,0,0,0-2.1-.11.7.7,0,1,1,0-1.39,20.23,20.23,0,0,1,2.26.13,15.55,15.55,0,0,1,2,.37"/><path class="cls-1" d="M18.11,20.93a.7.7,0,0,1,.95.29.67.67,0,0,1-.29.93,14.19,14.19,0,0,1-3.8,1.2,28,28,0,0,1-4.87.41.69.69,0,1,1,0-1.38A25.83,25.83,0,0,0,14.71,22a12.31,12.31,0,0,0,3.4-1.06"/><path class="cls-1" d="M2.22,19.12a.7.7,0,0,1,.71-.7.7.7,0,0,1,.7.7v2.57a.69.69,0,0,1-.7.69.7.7,0,0,1-.71-.69Z"/><path class="cls-1" d="M25.85,10.86a4.12,4.12,0,0,1-1.43-3.14h0a4.19,4.19,0,0,1,1.26-3,4.37,4.37,0,0,1,6.08,0,4.16,4.16,0,0,1,1,4.5,4.24,4.24,0,0,1-.84,1.32,4.38,4.38,0,0,1-4.89,1,4.11,4.11,0,0,1-1.14-.73m0-3a2.85,2.85,0,0,0,.61,1.64l.28.27.1.06h0a2.85,2.85,0,0,0,1.92.7,3,3,0,0,0,1.16-.24,2.95,2.95,0,0,0,1.53-1.56,2.86,2.86,0,0,0,.19-1,2.79,2.79,0,0,0-.84-2,2.94,2.94,0,0,0-2-.83,2.9,2.9,0,0,0-2,.83,2.79,2.79,0,0,0-.84,2A.68.68,0,0,1,25.82,7.88Zm10,3.3-.12.1h0l-5.91,4.06a.72.72,0,0,1-.72.06l-4.81-2.19.56,1.21,5.94,2.7L36,13.51ZM34,4.13,28.15,1.49l-5.24,3.6.57,6.25L29.28,14l5.25-3.6Zm-6.29-4a.73.73,0,0,1,.7-.07l6.55,3a.72.72,0,0,1,.41.62v.15h0c.1,1.25,0,.67.17,1.92A.64.64,0,0,1,36,5.49a.69.69,0,0,1,.76.63c.23,2.56.44,5.12.65,7.68h0a.7.7,0,0,1-.3.62l-5.9,4.06a.72.72,0,0,1-.71.06l-6.38-2.9h0L24,15.56a.68.68,0,0,1-.35-.34l-1.44-3.14a.66.66,0,0,1-.06-.27l-.64-7a.66.66,0,0,1,.21-.55.8.8,0,0,1,.19-.13Z"/><path class="cls-1" d="M5.8,8.84a15.7,15.7,0,0,0,2.5-.73l.1,0,.71-.27.73-.31a22.53,22.53,0,0,0,3.4-1.79c.56-.38,1-.4,1-.48s-.35.22-1,.37A23.35,23.35,0,0,0,9.54,6.85h0a22.53,22.53,0,0,0-3.4,1.79,1.76,1.76,0,0,1-.34.2m-.39,1.44a.5.5,0,0,1-.17,0l-.13,0a1.93,1.93,0,0,1-.62-.09,1,1,0,0,1-.6-.52c-.28-.61.3-1.39,1.45-2.17A24.08,24.08,0,0,1,9,5.58H9a23.82,23.82,0,0,1,3.89-1.34c1.36-.32,2.34-.21,2.62.41S15.19,6,14,6.82a22.39,22.39,0,0,1-3.63,1.93l-.76.31-.75.3H8.84l0,0A13.28,13.28,0,0,1,5.41,10.28Z"/><path class="cls-1" d="M28.26,9.55a.71.71,0,0,1-1,.29A.67.67,0,0,1,27,8.92a3.55,3.55,0,0,1,3.09-1.77.7.7,0,0,1,.7.69.69.69,0,0,1-.7.68,2.12,2.12,0,0,0-1.85,1"/><path class="cls-1" d="M6.18,18.15a.65.65,0,0,1,.62-.67.64.64,0,0,1,.68.61l.14,2.55a.63.63,0,0,1-.2.5L5.85,22.61a.67.67,0,0,1-.92,0,.64.64,0,0,1,0-.91L6.3,20.42Z"/></g></g></svg>