<svg xmlns="http://www.w3.org/2000/svg" viewBox="0 0 29.34 37.2"><defs><style>.cls-1{fill:#fff;}</style></defs><g id="Layer_2" data-name="Layer 2"><g id="Layer_1-2" data-name="Layer 1"><path class="cls-1" d="M27.92,28.08H17.5v6.06A1.67,1.67,0,0,0,18,35.31a1.65,1.65,0,0,0,1.15.48h7.17a1.64,1.64,0,0,0,1.63-1.65V28.08M26.42,7.8l-.06-.06a5.27,5.27,0,0,0-1.28-1.26,3.69,3.69,0,0,0-1.42-.6.72.72,0,0,1-.56-.83s0-.77,0-1.19a.7.7,0,0,1,.7-.71l0,0s0,0,0,0V1.42H21.58V3.06h0v0a.08.08,0,0,0,0,0l0,0a.71.71,0,0,1,.71.71c0,.42,0,1.19,0,1.19a.76.76,0,0,1-.6.83,4.77,4.77,0,0,0-3,2.31,8.86,8.86,0,0,0-1.23,4H27.9a9.24,9.24,0,0,0-.11-.92,8.56,8.56,0,0,0-.38-1.53l0-.09A7.7,7.7,0,0,0,26.42,7.8ZM16.09,12.57a10.39,10.39,0,0,1,1.46-5.12,6.86,6.86,0,0,1,2.38-2.38h0a5.08,5.08,0,0,1,1.38-.54,1.62,1.62,0,0,1-.71-.4,1.47,1.47,0,0,1-.43-1V.71a.7.7,0,0,1,.7-.71h3.67a.71.71,0,0,1,.71.71V3.08a1.52,1.52,0,0,1-.43,1,1.62,1.62,0,0,1-.71.4,5,5,0,0,1,1.77.79,6.33,6.33,0,0,1,1.12,1h0l.26.3.24.31,0,.07a9.24,9.24,0,0,1,1.17,2.25l0,.09a10.41,10.41,0,0,1,.44,1.77,12.48,12.48,0,0,1,.15,1.85s0,.06,0,.09V27.27s0,.07,0,.1v6.77a3.07,3.07,0,0,1-3.05,3.06H19.12A3,3,0,0,1,17,36.3a3.05,3.05,0,0,1-.89-2.16V12.57Zm1.4,1.07v13H27.93c0-1.91,0-3.81,0-5.72H19.37a.71.71,0,0,1-.71-.71.7.7,0,0,1,.71-.7h8.54c0-2,0-3.93,0-5.89Z"/><path class="cls-1" d="M20.18,24.4a.71.71,0,0,1-.71-.71.7.7,0,0,1,.71-.7h6.09a.7.7,0,0,1,.71.7.71.71,0,0,1-.71.71H20.18"/><path class="cls-1" d="M20.25,17.34a.89.89,0,0,1-.78-1,.89.89,0,0,1,.78-1H27a.89.89,0,0,1,.78,1,.89.89,0,0,1-.78,1H20.25"/><path class="cls-1" d="M7.35,37.2h-2a2.77,2.77,0,0,1-2.75-2.43L1,22a.72.72,0,0,1-.69-.61L0,19.18A.77.77,0,0,1,0,19a.7.7,0,0,1,.71-.7H14a.7.7,0,0,1,.7.7.76.76,0,0,1,0,.15l-.31,2.22a.71.71,0,0,1-.68.61L12.05,34.77A2.77,2.77,0,0,1,9.29,37.2ZM1.52,19.74l.12.86a.7.7,0,0,1,.69.62Q3.18,27.91,4,34.6a1.39,1.39,0,0,0,.45.85,1.37,1.37,0,0,0,.9.34H9.29a1.35,1.35,0,0,0,.9-.34,1.41,1.41,0,0,0,.46-.85q.84-6.69,1.7-13.38A.69.69,0,0,1,13,20.6l.11-.86Z"/><path class="cls-1" d="M3.69,22A.7.7,0,0,1,3,21.3a.7.7,0,0,1,.7-.7H8.57a.7.7,0,0,1,.71.7.71.71,0,0,1-.71.71Z"/><path class="cls-1" d="M10,33.51a.7.7,0,0,1-.78.61.71.71,0,0,1-.61-.78l.22-1.73A.71.71,0,0,1,9.6,31a.7.7,0,0,1,.6.78Z"/><path class="cls-1" d="M7.09,22.83a.66.66,0,0,1,0,1.32,10,10,0,0,0-1.5,1.63l3,3.48a.65.65,0,0,1,0,.8L6.3,33.87a.65.65,0,0,1-.9.22.64.64,0,0,1-.22-.89l2.09-3.45-3-3.53a.65.65,0,0,1,0-.88s2.44-2.51,2.82-2.51"/><path class="cls-1" d="M18.91,7.43a.66.66,0,1,1,.81-1l2.7,2.16a.65.65,0,0,1,.1.92.86.86,0,0,1-.14.13l-2.69,1.9a.66.66,0,0,1-.91-.16.65.65,0,0,1,.16-.91l2-1.4Z"/><path class="cls-1" d="M24.29,34.25c-.31.71-.72.72-1.05.49s-.45-.59-.15-1.29l1.4-3.19c.31-.71.66-.74,1-.52s.51.62.2,1.32Z"/></g></g></svg>