<svg xmlns="http://www.w3.org/2000/svg" viewBox="0 0 42.21 31.63"><defs><style>.cls-1{fill:#fff;}</style></defs><g id="Layer_2" data-name="Layer 2"><g id="Layer_1-2" data-name="Layer 1"><path class="cls-1" d="M26.59,10.89l-1.13.58,0,0L18.69,15l.71.32.1.06L23.24,17l.12,0,3.24,1.46v-.93a.28.28,0,0,1,0-.09Zm-1.7-.67,1.31-.67L23.48,6l-.61.29-.09,0L21.31,7l-.09,0-6.38,3,2.91,3.79,7-3.62ZM40.47,10l-2.12-.83-.12,0L30.75,6,28.32,9.58l.48.23.06,0,1.68.82.06,0L38,14.32,40.5,10ZM38.85,7.91l1.4.55a.49.49,0,0,1,.2,0l1.33.54a.68.68,0,0,1,.37.91.54.54,0,0,1-.07.13L39,15.42,39,26a.7.7,0,0,1-.39.66l-1.12.56-.12.05L33.5,29.19l-.1.07-4.57,2.3h0a.71.71,0,0,1-.32.07.7.7,0,0,1-.54-.24l-1.84-.82-.09,0-8.78-3.9a.7.7,0,0,1-.42-.63h0V15.22a.57.57,0,0,1,0-.18L13.2,10.26a.69.69,0,0,1,.14-1l.12-.07h0l7.15-3.4.05,0,1.54-.73.06,0,1.13-.54a.71.71,0,0,1,.89.24l3,3.9L29.9,4.78a.71.71,0,0,1,.86-.25h0l8,3.35Zm-8.13,12-1.48.76,0,9.16,2.44-1.23h0L36.76,26h0l.06,0,.75-.37,0-9.22-6.75,3.46A.33.33,0,0,1,30.72,19.89Zm-2.13-.45,3.86-2h0l4.3-2.21L30,11.94l-.08,0-1.63-.8-.09,0L28,11v6.55s0,.06,0,.09v1.56Zm-2,9.84.07,0,1.12.5v-9.2l-4.56-2.05-.06,0-4.41-2h0l-.53-.24v9.26Z"/><path class="cls-1" d="M7.81,12.14l-.47-.28-.39,1,.31-.27,0,0ZM5.48,6.25l-.07,0-3,.89L4,8.19,15.54,3.34,9.93,5,9.79,5Zm4.59,1.52L12.2,6.25,4.74,9.39,5,10.64a.29.29,0,0,1,0,.09l.45,2,.83-2.17h.06v0a.8.8,0,0,1,.21-.2h0l3.48-2.48Zm3.59,5.53a.71.71,0,0,1,1-.24.7.7,0,0,1,.25.95l-.72,1.19a.72.72,0,0,1-1,.24L9.05,12.9l-.78.66-.08.08-2.4,2.07-.13.1h0a.68.68,0,0,1-.2.07.71.71,0,0,1-.84-.53L3.65,11s0,0,0-.08L3.3,9.4l-3-1.9a.69.69,0,0,1-.21-1A.72.72,0,0,1,.5,6.26h0L5,5a.53.53,0,0,1,.12,0L9.6,3.64,21.87,0a.7.7,0,0,1,.87.47.65.65,0,0,1-.07.56L19.88,5.69a.72.72,0,0,1-1,.25.68.68,0,0,1-.25-1l1.88-3.13-2.46.73a.49.49,0,0,1,.2.18.69.69,0,0,1-.15,1L8.88,10.33l-.11.06-.53.38,1.12.69h0l3.94,2.42Z"/><path class="cls-1" d="M19.35,20.65a.7.7,0,0,1,1.4,0v3.08l1.57.69a.69.69,0,0,1,.35.91.72.72,0,0,1-.93.35l-1.94-.87a.67.67,0,0,1-.45-.64Z"/><path class="cls-1" d="M33.29,21.22a.7.7,0,0,1-.95-.29.68.68,0,0,1,.3-.92l3-1.57a.72.72,0,0,1,1,.29.69.69,0,0,1-.3.93Z"/><path class="cls-1" d="M30.92,8.57a.68.68,0,0,1-.37-.9.7.7,0,0,1,.92-.36l2.32,1a.69.69,0,0,1,.37.9.71.71,0,0,1-.92.36Z"/><path class="cls-1" d="M10.48,11.24a.69.69,0,0,1-.23-1,.72.72,0,0,1,1-.22l1.23.76a.69.69,0,0,1,.23.95.72.72,0,0,1-1,.22Z"/><path class="cls-1" d="M23.72,18.14a.66.66,0,0,1,.86-.33.62.62,0,0,1,.34.84c-.07.16.24.45.42,1.1a16.94,16.94,0,0,1,.49,2.06.58.58,0,0,1-.66.66A7.83,7.83,0,0,0,24,23.54a.67.67,0,0,1-.93-.07.63.63,0,0,1,.08-.9s.7-.59,1.28-1c-.08-.33-.25-.92-.4-1.49a5.22,5.22,0,0,1-.35-1.94"/></g></g></svg>