<svg xmlns="http://www.w3.org/2000/svg" viewBox="0 0 64 64"><defs><style>.cls-1{fill:none;stroke:#ff8302;stroke-linecap:round;stroke-linejoin:round;stroke-width:2px;}</style></defs><g id="Layer_2" data-name="Layer 2"><g id="Layer_1-2" data-name="Layer 1"><g id="g1832"><path id="path1773" class="cls-1" d="M9,8c0,3.87-1.79,7-4,7S1,11.87,1,8,2.79,1,5,1,9,4.13,9,8Z"/><path id="path1776" class="cls-1" d="M9,22c0,3.87-1.79,7-4,7s-4-3.13-4-7,1.79-7,4-7,4,3.13,4,7Z"/><path id="path1778" class="cls-1" d="M59,1c2.21,0,4,3.13,4,7s-1.79,7-4,7"/><path id="path1780" class="cls-1" d="M59,15c2.21,0,4,3.13,4,7s-1.79,7-4,7"/><path id="path1782" class="cls-1" d="M59,1H5"/><path id="path1784" class="cls-1" d="M59,15H5"/><path id="path1786" class="cls-1" d="M18,29H5"/><path id="path1819" class="cls-1" d="M14,15c2.21,0,4,3.13,4,7V63H55V22c0-3.87-1.79-7-4-7"/><path id="path1821" class="cls-1" d="M59,29H55"/></g></g></g></svg>