<svg xmlns="http://www.w3.org/2000/svg" viewBox="0 0 38.04 55.46"><defs><style>.cls-1{fill:#ff8302;}</style></defs><g id="Layer_2" data-name="Layer 2"><g id="Layer_1-2" data-name="Layer 1"><path class="cls-1" d="M35.65,5a5.46,5.46,0,0,0-5.44-5H7.83A5.46,5.46,0,0,0,2.39,5,3.06,3.06,0,0,0,0,8V9.39A3.06,3.06,0,0,0,1.46,12L5.35,51.9a4,4,0,0,0,4,3.56H28.71a3.94,3.94,0,0,0,4-3.56L36.58,12A3.06,3.06,0,0,0,38,9.39V8A3.06,3.06,0,0,0,35.65,5ZM7.83,2.13H30.21A3.33,3.33,0,0,1,33.49,5H4.55A3.33,3.33,0,0,1,7.83,2.13ZM30.56,51.69a1.85,1.85,0,0,1-1.85,1.64H9.33a1.85,1.85,0,0,1-1.85-1.64L3.64,12.45H22.71a13.44,13.44,0,0,1,.81,5.16l-1.35-.49a3.66,3.66,0,0,0-2.83.12,3.71,3.71,0,0,0-1.92,2.1l-2.58,7.12a3.71,3.71,0,0,0,2.22,4.75l5.1,1.85h0a3.68,3.68,0,0,0,1.26.22A3.74,3.74,0,0,0,25,32.93a3.67,3.67,0,0,0,1.92-2.1l2.58-7.12A3.72,3.72,0,0,0,27.27,19l-1.65-.59A16.07,16.07,0,0,0,25,12.45h9.43ZM26.54,21a1.57,1.57,0,0,1,.94,2L24.9,30.11a1.57,1.57,0,0,1-.81.89,1.54,1.54,0,0,1-1.21.05l-5.09-1.84a1.59,1.59,0,0,1-.89-.82,1.56,1.56,0,0,1-.06-1.2l2.59-7.12a1.56,1.56,0,0,1,.81-.9,1.63,1.63,0,0,1,1.21-.05ZM35.91,8.76v.63a.94.94,0,0,1-.92.93H3.05a.94.94,0,0,1-.92-.93V8a.93.93,0,0,1,.62-.87.94.94,0,0,1,.3-.05H35a1,1,0,0,1,.3.05.93.93,0,0,1,.62.87Z"/></g></g></svg>