<svg xmlns="http://www.w3.org/2000/svg" viewBox="0 0 411.63 408.18"><g id="Layer_2" data-name="Layer 2"><g id="_àð_1" data-name="˜àð_1"><path d="M124.19,331.8h0v-5.6H92.33a36.69,36.69,0,0,1-31.72-55.1l53-91.22,24.07,14-7.26-97L42.05,138.39,65.56,152,12.61,243.25A92.16,92.16,0,0,0,92.25,381.68h32.21V370.49h0Z"/><path d="M398.74,242.07,377.1,205.3l-4.83,2.84h0l-18.44,10.45L361.67,124l-23.56,13.56-52.62-91.4A91.14,91.14,0,0,0,205.63,0h-.3a91.2,91.2,0,0,0-79.87,46.66L107.27,78.71l5.13,2.92,33.27,19.12v0l9.73,5.54,18.32-32.25a36.28,36.28,0,0,1,31.78-18.57c13.34-.37,25.24,6.83,31.9,18.37L290,165.29l-24.14,13.88,85.24,41-12.51,7.09-.06-.09-9.64,5.69,22,37.41a36.68,36.68,0,0,1-31.61,55.28H213.84V297.65l-80.29,55,80.29,55.53V381H319.31a92.16,92.16,0,0,0,79.43-138.92Z"/><path d="M234.07,218.42a23.22,23.22,0,0,1,6,16.32,25.82,25.82,0,0,1-3.94,13.85,27.48,27.48,0,0,1-12,10.16q-8.06,3.81-19.76,3.81a67.83,67.83,0,0,1-17.92-2.4,46.38,46.38,0,0,1-15-6.83l7.76-15.27a37.73,37.73,0,0,0,11.39,5.73,44,44,0,0,0,13.24,2q7.5,0,11.82-2.9a9.28,9.28,0,0,0,4.31-8.18q0-10.59-16.13-10.59H194.8V211l17.73-20.07h-36.7v-16h60.34v12.93L216.71,210Q228.05,211.83,234.07,218.42Z"/></g></g></svg>