<svg xmlns="http://www.w3.org/2000/svg" viewBox="0 0 411.63 408.18"><g id="Layer_2" data-name="Layer 2"><g id="_àð_1" data-name="˜àð_1"><path d="M124.19,331.8h0v-5.6H92.33a36.69,36.69,0,0,1-31.72-55.1l53-91.22,24.07,14-7.26-97L42.05,138.39,65.56,152,12.61,243.25A92.16,92.16,0,0,0,92.25,381.68h32.21V370.49h0Z"/><path d="M398.74,242.07,377.1,205.3l-4.83,2.84h0l-18.44,10.45L361.67,124l-23.56,13.56-52.62-91.4A91.14,91.14,0,0,0,205.63,0h-.3a91.2,91.2,0,0,0-79.87,46.66L107.27,78.71l5.13,2.92,33.27,19.12v0l9.73,5.54,18.32-32.25a36.28,36.28,0,0,1,31.78-18.57c13.34-.37,25.24,6.83,31.9,18.37L290,165.29l-24.14,13.88,85.24,41-12.51,7.09-.06-.09-9.64,5.69,22,37.41a36.68,36.68,0,0,1-31.61,55.28H213.84V297.65l-80.29,55,80.29,55.53V381H319.31a92.16,92.16,0,0,0,79.43-138.92Z"/><path d="M245.77,243h-14v18.1H212.28V243H165.86V229.56l40.63-54.67h20.94l-37.68,51.84H212.9V210.6h18.83v16.13h14Z"/></g></g></svg>