<svg xmlns="http://www.w3.org/2000/svg" viewBox="0 0 411.63 408.18"><g id="Layer_2" data-name="Layer 2"><g id="_àð_1" data-name="˜àð_1"><path d="M124.19,331.8h0v-5.6H92.33a36.69,36.69,0,0,1-31.72-55.1l53-91.22,24.07,14-7.26-97L42.05,138.39,65.56,152,12.61,243.25A92.16,92.16,0,0,0,92.25,381.68h32.21V370.49h0Z"/><path d="M398.74,242.07,377.1,205.3l-4.83,2.84h0l-18.44,10.45L361.67,124l-23.56,13.56-52.62-91.4A91.14,91.14,0,0,0,205.63,0h-.3a91.2,91.2,0,0,0-79.87,46.66L107.27,78.71l5.13,2.92,33.27,19.12v0l9.73,5.54,18.32-32.25a36.28,36.28,0,0,1,31.78-18.57c13.34-.37,25.24,6.83,31.9,18.37L290,165.29l-24.14,13.88,85.24,41-12.51,7.09-.06-.09-9.64,5.69,22,37.41a36.68,36.68,0,0,1-31.61,55.28H213.84V297.65l-80.29,55,80.29,55.53V381H319.31a92.16,92.16,0,0,0,79.43-138.92Z"/><path d="M226.75,210.36a26.2,26.2,0,0,1,10.71,9.42,25.34,25.34,0,0,1,3.94,14.09A26.88,26.88,0,0,1,237.09,249a28,28,0,0,1-11.76,10,38.33,38.33,0,0,1-16.56,3.51q-18.11,0-28.32-11.08t-10.22-31.64q0-14.65,5.54-25.12a37.82,37.82,0,0,1,15.46-15.89q9.9-5.42,23-5.41A55.75,55.75,0,0,1,227.43,175a35.32,35.32,0,0,1,10.77,4.37L230.81,194q-6.41-4.3-16.13-4.31-11,0-17.36,6.4t-6.9,18.6q7.64-7.63,21.31-7.64A33.59,33.59,0,0,1,226.75,210.36Zm-8.68,33.86a11.74,11.74,0,0,0,4-9.36,11.92,11.92,0,0,0-4-9.42q-4-3.51-10.65-3.51a15.78,15.78,0,0,0-10.72,3.63,12.48,12.48,0,0,0-.12,18.53c2.71,2.39,6.4,3.57,11.08,3.57Q214.07,247.66,218.07,244.22Z"/></g></g></svg>