<svg xmlns="http://www.w3.org/2000/svg" xmlns:xlink="http://www.w3.org/1999/xlink" viewBox="0 0 233.76 276.95"><defs><style>.cls-1{fill:none;}.cls-2{isolation:isolate;}.cls-3{fill:#222831;}.cls-10,.cls-11,.cls-12,.cls-13,.cls-14,.cls-15,.cls-16,.cls-3,.cls-4,.cls-5,.cls-6,.cls-9{fill-rule:evenodd;}.cls-4{fill:#00486e;}.cls-5{fill:#005999;}.cls-6{fill:#003a56;}.cls-7{clip-path:url(#clip-path);}.cls-8{fill:url(#Безымянный_градиент);}.cls-9{fill:#00456c;}.cls-10{fill:#525961;}.cls-11{fill:#79818d;}.cls-12{fill:#4a555f;}.cls-13{fill:#0a1525;}.cls-14{fill:#4c555d;}.cls-15{fill:#77808c;}.cls-16{fill:#45505c;}.cls-17{opacity:0.7;}.cls-18{clip-path:url(#clip-path-2);}.cls-19{clip-path:url(#clip-path-3);}.cls-20{clip-path:url(#clip-path-4);}.cls-21{clip-path:url(#clip-path-5);}.cls-22{clip-path:url(#clip-path-6);}.cls-23{clip-path:url(#clip-path-7);}.cls-24{clip-path:url(#clip-path-8);}.cls-25{clip-path:url(#clip-path-9);}.cls-26{clip-path:url(#clip-path-10);}.cls-27{clip-path:url(#clip-path-11);}.cls-28{clip-path:url(#clip-path-12);}.cls-29{clip-path:url(#clip-path-13);}.cls-30{clip-path:url(#clip-path-14);}.cls-31{clip-path:url(#clip-path-15);}.cls-32{clip-path:url(#clip-path-16);}.cls-33{clip-path:url(#clip-path-17);}.cls-34{clip-path:url(#clip-path-18);}.cls-35{clip-path:url(#clip-path-19);}.cls-36{clip-path:url(#clip-path-20);}.cls-37{clip-path:url(#clip-path-21);}.cls-38{mix-blend-mode:multiply;opacity:0.1;}.cls-39{clip-path:url(#clip-path-22);}.cls-40{fill:#f58220;}</style><clipPath id="clip-path"><path class="cls-1" d="M30.85,14a12.22,12.22,0,0,0-11.52,7.9l-6.72,17H223l-6.72-17A12.22,12.22,0,0,0,204.78,14Z"/></clipPath><linearGradient id="Безымянный_градиент" x1="-45.61" y1="553.52" x2="-44.61" y2="553.52" gradientTransform="matrix(0, 40.86, 40.86, 0, -22501.53, 1879.62)" gradientUnits="userSpaceOnUse"><stop offset="0" stop-color="#00496e"/><stop offset="1" stop-color="#003953"/></linearGradient><clipPath id="clip-path-2"><rect class="cls-1" x="27.7" y="60.02" width="9.49" height="8.84"/></clipPath><clipPath id="clip-path-3"><rect class="cls-1" x="131.3" y="59.83" width="9.49" height="8.84"/></clipPath><clipPath id="clip-path-4"><rect class="cls-1" x="48.01" y="60.07" width="9.49" height="8.84"/></clipPath><clipPath id="clip-path-5"><rect class="cls-1" x="151.6" y="59.88" width="9.49" height="8.84"/></clipPath><clipPath id="clip-path-6"><rect class="cls-1" x="68.32" y="60.12" width="9.49" height="8.84"/></clipPath><clipPath id="clip-path-7"><rect class="cls-1" x="171.91" y="59.93" width="9.49" height="8.84"/></clipPath><clipPath id="clip-path-8"><rect class="cls-1" x="88.52" y="60.17" width="9.49" height="8.84"/></clipPath><clipPath id="clip-path-9"><rect class="cls-1" x="192.11" y="59.97" width="9.49" height="8.84"/></clipPath><clipPath id="clip-path-10"><rect class="cls-1" x="108.72" y="60.22" width="9.49" height="8.84"/></clipPath><clipPath id="clip-path-11"><rect class="cls-1" x="212.32" y="60.02" width="9.49" height="8.84"/></clipPath><clipPath id="clip-path-12"><rect class="cls-1" x="13.82" y="60.02" width="9.49" height="8.84"/></clipPath><clipPath id="clip-path-13"><rect class="cls-1" x="117.42" y="59.83" width="9.49" height="8.84"/></clipPath><clipPath id="clip-path-14"><rect class="cls-1" x="34.13" y="60.07" width="9.49" height="8.84"/></clipPath><clipPath id="clip-path-15"><rect class="cls-1" x="137.72" y="59.88" width="9.49" height="8.84"/></clipPath><clipPath id="clip-path-16"><rect class="cls-1" x="54.44" y="60.12" width="9.49" height="8.84"/></clipPath><clipPath id="clip-path-17"><rect class="cls-1" x="158.03" y="59.93" width="9.49" height="8.84"/></clipPath><clipPath id="clip-path-18"><rect class="cls-1" x="74.64" y="60.17" width="9.49" height="8.84"/></clipPath><clipPath id="clip-path-19"><rect class="cls-1" x="178.23" y="59.97" width="9.49" height="8.84"/></clipPath><clipPath id="clip-path-20"><rect class="cls-1" x="94.85" y="60.22" width="9.49" height="8.84"/></clipPath><clipPath id="clip-path-21"><rect class="cls-1" x="198.44" y="60.02" width="9.49" height="8.84"/></clipPath><clipPath id="clip-path-22"><rect class="cls-1" x="44.08" y="87.82" width="142.84" height="142.84"/></clipPath></defs><g class="cls-2"><g id="Layer_2" data-name="Layer 2"><g id="Слой_1" data-name="Слой 1"><path class="cls-3" d="M43.1,255.14A10.91,10.91,0,1,1,32.2,266a10.91,10.91,0,0,1,10.9-10.9"/><path class="cls-4" d="M3.34,75.66H229.76A3.27,3.27,0,0,1,233.09,79l-.6,9.43a3.42,3.42,0,0,1-3.33,3.33H3.94A3.42,3.42,0,0,1,.6,88.42L0,79a3.27,3.27,0,0,1,3.33-3.33"/><path class="cls-5" d="M13.81,59.46h208l-4.59,176.73a16.42,16.42,0,0,1-16.4,16H34.8a16.42,16.42,0,0,1-16.4-16Z"/><path class="cls-6" d="M7.34,38.35h221a5.48,5.48,0,0,1,5.47,5.47V54.55A5.48,5.48,0,0,1,228.29,60H7.34a5.48,5.48,0,0,1-5.47-5.47V43.82a5.48,5.48,0,0,1,5.47-5.47"/><g class="cls-7"><rect class="cls-8" x="12.43" y="12.36" width="210.78" height="28.12" transform="translate(-0.39 1.82) rotate(-0.88)"/></g><path class="cls-9" d="M73.28,0h89.07a7.91,7.91,0,0,1,7.88,7.88v31H65.4v-31A7.91,7.91,0,0,1,73.28,0"/><polygon class="cls-10" points="47.18 252.17 51.68 252.17 48.26 266.04 47.18 266.04 47.18 252.17"/><polygon class="cls-11" points="41.09 252.17 47.18 252.17 47.18 266.04 43.05 268.16 41.09 267.95 41.09 252.17"/><path class="cls-12" d="M43.1,260.88A5.16,5.16,0,1,1,37.94,266a5.16,5.16,0,0,1,5.16-5.16"/><path class="cls-13" d="M188,255.14A10.91,10.91,0,1,1,177.12,266,10.9,10.9,0,0,1,188,255.14"/><polygon class="cls-14" points="192.1 252.17 196.6 252.17 193.19 266.04 192.1 266.04 192.1 252.17"/><polygon class="cls-15" points="186.01 252.17 192.1 252.17 192.1 266.04 187.98 268.16 186.01 267.95 186.01 252.17"/><path class="cls-16" d="M188,260.88a5.16,5.16,0,1,1-5.17,5.16,5.16,5.16,0,0,1,5.17-5.16"/><g class="cls-17"><g class="cls-18"><path class="cls-4" d="M27.7,60h9.49a9.55,9.55,0,0,0-9.49,8.85Z"/></g></g><g class="cls-17"><g class="cls-19"><path class="cls-4" d="M131.3,59.83h9.49a9.54,9.54,0,0,0-9.49,8.84Z"/></g></g><g class="cls-17"><g class="cls-20"><path class="cls-4" d="M48,60.07H57.5A9.55,9.55,0,0,0,48,68.92Z"/></g></g><g class="cls-17"><g class="cls-21"><path class="cls-4" d="M151.6,59.88h9.49a9.54,9.54,0,0,0-9.49,8.84Z"/></g></g><g class="cls-17"><g class="cls-22"><path class="cls-4" d="M68.32,60.12h9.49A9.54,9.54,0,0,0,68.32,69Z"/></g></g><g class="cls-17"><g class="cls-23"><path class="cls-4" d="M171.91,59.92h9.49a9.55,9.55,0,0,0-9.49,8.85Z"/></g></g><g class="cls-17"><g class="cls-24"><path class="cls-4" d="M88.52,60.17H98A9.55,9.55,0,0,0,88.52,69Z"/></g></g><g class="cls-17"><g class="cls-25"><path class="cls-4" d="M192.11,60h9.49a9.55,9.55,0,0,0-9.49,8.85Z"/></g></g><g class="cls-17"><g class="cls-26"><path class="cls-4" d="M108.72,60.22h9.49a9.55,9.55,0,0,0-9.49,8.85Z"/></g></g><g class="cls-17"><g class="cls-27"><path class="cls-4" d="M212.32,60h9.49a9.54,9.54,0,0,0-9.49,8.85Z"/></g></g><g class="cls-17"><g class="cls-28"><path class="cls-4" d="M23.31,60H13.82a9.54,9.54,0,0,1,9.49,8.85Z"/></g></g><g class="cls-17"><g class="cls-29"><path class="cls-4" d="M126.91,59.83h-9.49a9.54,9.54,0,0,1,9.49,8.84Z"/></g></g><g class="cls-17"><g class="cls-30"><path class="cls-4" d="M43.62,60.07H34.13a9.55,9.55,0,0,1,9.49,8.85Z"/></g></g><g class="cls-17"><g class="cls-31"><path class="cls-4" d="M147.21,59.88h-9.49a9.54,9.54,0,0,1,9.49,8.84Z"/></g></g><g class="cls-17"><g class="cls-32"><path class="cls-4" d="M63.93,60.12H54.44A9.55,9.55,0,0,1,63.93,69Z"/></g></g><g class="cls-17"><g class="cls-33"><path class="cls-4" d="M167.52,59.92H158a9.55,9.55,0,0,1,9.49,8.85Z"/></g></g><g class="cls-17"><g class="cls-34"><path class="cls-4" d="M84.13,60.17H74.64A9.55,9.55,0,0,1,84.13,69Z"/></g></g><g class="cls-17"><g class="cls-35"><path class="cls-4" d="M187.72,60h-9.49a9.55,9.55,0,0,1,9.49,8.85Z"/></g></g><g class="cls-17"><g class="cls-36"><path class="cls-4" d="M104.33,60.22H94.84a9.54,9.54,0,0,1,9.49,8.85Z"/></g></g><g class="cls-17"><g class="cls-37"><path class="cls-4" d="M207.93,60h-9.49a9.55,9.55,0,0,1,9.49,8.85Z"/></g></g><polygon class="cls-4" points="22.66 60.02 28.36 60.02 27.34 73.99 23.67 73.99 22.66 60.02"/><polygon class="cls-4" points="126.25 59.83 131.95 59.83 130.94 73.79 127.27 73.79 126.25 59.83"/><polygon class="cls-4" points="42.93 60.02 48.63 60.02 47.61 73.99 43.95 73.99 42.93 60.02"/><polygon class="cls-4" points="146.52 59.83 152.22 59.83 151.21 73.79 147.54 73.79 146.52 59.83"/><polygon class="cls-4" points="63.2 60.02 68.9 60.02 67.89 73.99 64.22 73.99 63.2 60.02"/><polygon class="cls-4" points="166.79 59.83 172.5 59.83 171.48 73.79 167.81 73.79 166.79 59.83"/><polygon class="cls-4" points="83.47 60.02 89.17 60.02 88.16 73.99 84.49 73.99 83.47 60.02"/><polygon class="cls-4" points="187.07 59.83 192.77 59.83 191.75 73.79 188.08 73.79 187.07 59.83"/><polygon class="cls-4" points="103.75 60.02 109.45 60.02 108.43 73.99 104.76 73.99 103.75 60.02"/><polygon class="cls-4" points="207.34 59.83 213.04 59.83 212.03 73.79 208.36 73.79 207.34 59.83"/><g class="cls-38"><g class="cls-39"><path class="cls-5" d="M52,87.82H179a8,8,0,0,1,7.93,7.94v127a8,8,0,0,1-7.93,7.94H52a8,8,0,0,1-7.94-7.94v-127A8,8,0,0,1,52,87.82"/></g></g><path class="cls-40" d="M173.5,96.6h-2.75V95.05h2.92V93.66h-4.62v7.48h4.77V99.75h-3.07V98h2.75ZM157,97.54a6.48,6.48,0,0,1,.65,0c.81,0,1.47.36,1.47,1.21s-.67,1.24-1.49,1.24a4,4,0,0,1-.63,0Zm-1.68-3.88v7.45a14.1,14.1,0,0,0,1.83.11,4.43,4.43,0,0,0,3.14-1,2.25,2.25,0,0,0,.6-1.63c0-1.66-1.36-2.43-3-2.43-.32,0-.68,0-.91.06v-2.6ZM143.6,95a2.92,2.92,0,0,1,.69-.07c.85,0,1.33.41,1.33,1.1s-.56,1.22-1.46,1.22a2.79,2.79,0,0,1-.56,0Zm-1.68,6.19h1.68V98.47a4.56,4.56,0,0,0,.57,0,3.47,3.47,0,0,0,2.43-.79,2.36,2.36,0,0,0,.69-1.77,2.15,2.15,0,0,0-.8-1.73,3.57,3.57,0,0,0-2.28-.6,13.81,13.81,0,0,0-2.29.15Zm-10.28,0h1.69V93.66h-1.69Zm-4.49-3.6a4.69,4.69,0,0,1,.59,0,1.29,1.29,0,0,1,1.44,1.2,1.32,1.32,0,0,1-1.46,1.25,3,3,0,0,1-.57,0Zm-1.68-3.88v7.45a14,14,0,0,0,1.81.11,4.36,4.36,0,0,0,3.07-1,2.22,2.22,0,0,0,.6-1.61c0-1.68-1.42-2.45-3-2.45a6.45,6.45,0,0,0-.83.07V93.66Zm-8.36,6a4.31,4.31,0,0,1-1.41.24,2.46,2.46,0,0,1,0-4.91,3.77,3.77,0,0,1,1.42.27l.34-1.34a4.49,4.49,0,0,0-1.84-.33,3.81,3.81,0,0,0-4.08,4,3.55,3.55,0,0,0,3.91,3.74,4.93,4.93,0,0,0,1.92-.32Zm-17-4.66a3,3,0,0,1,.7-.07c.84,0,1.32.41,1.32,1.1s-.56,1.22-1.46,1.22a2.79,2.79,0,0,1-.56,0Zm-1.68,6.19h1.68V98.47a4.56,4.56,0,0,0,.57,0,3.47,3.47,0,0,0,2.43-.79,2.36,2.36,0,0,0,.69-1.77,2.15,2.15,0,0,0-.8-1.73,3.57,3.57,0,0,0-2.28-.6,13.9,13.9,0,0,0-2.29.15Zm-11.7-6.26c1.17,0,1.81,1.16,1.81,2.5s-.66,2.54-1.8,2.54-1.82-1-1.82-2.5.67-2.54,1.81-2.54m0-1.34a3.62,3.62,0,0,0-3.64,3.92,3.48,3.48,0,0,0,3.51,3.8c2.19,0,3.68-1.49,3.68-3.94a3.49,3.49,0,0,0-3.55-3.78m-14.57,7.6h1.7V95.08h2V93.66H70.23v1.42h2ZM58.85,97.83h.58c.84,0,1.52.3,1.52,1.06S60.27,100,59.51,100a6,6,0,0,1-.66,0Zm0-3a5.23,5.23,0,0,1,.72,0c.77,0,1.2.3,1.2.86s-.47.92-1.36.92h-.56Zm-1.67,6.23a14.1,14.1,0,0,0,1.83.11,4.72,4.72,0,0,0,2.94-.68A2,2,0,0,0,62.73,99a1.88,1.88,0,0,0-1.49-1.84v0a1.69,1.69,0,0,0,1.23-1.6,1.64,1.64,0,0,0-.9-1.46,4.13,4.13,0,0,0-2.21-.42,13.35,13.35,0,0,0-2.18.15Z"/><path class="cls-40" d="M97.24,108.7H66A6,6,0,0,0,60,114.63V145.9A6,6,0,0,0,66,151.84H97.24a6,6,0,0,0,5.93-5.94V114.63a6,6,0,0,0-5.93-5.93M66,107.52H97.24a7.14,7.14,0,0,1,7.12,7.11V145.9A7.14,7.14,0,0,1,97.24,153H66a7.15,7.15,0,0,1-7.12-7.12V114.63A7.15,7.15,0,0,1,66,107.52"/><path class="cls-40" d="M97.24,171.29H66A5.94,5.94,0,0,0,60,177.22v31.27A5.94,5.94,0,0,0,66,214.42H97.24a5.94,5.94,0,0,0,5.93-5.93V177.22a5.94,5.94,0,0,0-5.93-5.93M66,170.1H97.24a7.14,7.14,0,0,1,7.12,7.12v31.27a7.14,7.14,0,0,1-7.12,7.12H66a7.15,7.15,0,0,1-7.12-7.12V177.22A7.15,7.15,0,0,1,66,170.1"/><path class="cls-40" d="M165.55,108.7H134.28a6,6,0,0,0-5.93,5.93V145.9a6,6,0,0,0,5.93,5.94h31.27a6,6,0,0,0,5.93-5.94V114.63a6,6,0,0,0-5.93-5.93m-31.27-1.18h31.27a7.14,7.14,0,0,1,7.12,7.11V145.9a7.14,7.14,0,0,1-7.12,7.12H134.28a7.15,7.15,0,0,1-7.12-7.12V114.63a7.15,7.15,0,0,1,7.12-7.11"/><path class="cls-40" d="M165.55,171.29H134.28a5.94,5.94,0,0,0-5.93,5.93v31.27a5.94,5.94,0,0,0,5.93,5.93h31.27a5.94,5.94,0,0,0,5.93-5.93V177.22a5.94,5.94,0,0,0-5.93-5.93m-31.27-1.19h31.27a7.14,7.14,0,0,1,7.12,7.12v31.27a7.14,7.14,0,0,1-7.12,7.12H134.28a7.15,7.15,0,0,1-7.12-7.12V177.22a7.15,7.15,0,0,1,7.12-7.12"/><path class="cls-40" d="M99.23,157.21c.93,0,1.45.92,1.45,2s-.53,2-1.44,2-1.45-.82-1.45-2,.53-2,1.44-2m0-1.08a2.89,2.89,0,0,0-2.91,3.14,2.79,2.79,0,0,0,2.81,3,2.85,2.85,0,0,0,2.94-3.15,2.8,2.8,0,0,0-2.84-3m-10,.1v2.62a3.07,3.07,0,0,1-.46,2,1.14,1.14,0,0,1-.68.32l.17,1.09a2.54,2.54,0,0,0,1.19-.29c.9-.54,1.1-1.72,1.1-3.25v-1.42H92v4.87h1.35v-6Zm-8.22,0v6h1.34v-2.5h.26c.73,0,1,.51,1.2,1.19a9.71,9.71,0,0,0,.47,1.31h1.45a16.13,16.13,0,0,1-.69-1.88,1.94,1.94,0,0,0-1.37-1.45l2.09-2.65H84.21l-1.65,2.49h-.12v-2.49Zm-3.29,2.35h-2.2v-1.24h2.33v-1.11H74.25v6h3.82V161.1H75.61v-1.42h2.2Zm-9.37,3.63h1.35v-4.84h1.63v-1.14H66.83v1.14h1.61ZM63.91,161a3.59,3.59,0,0,1-1.13.19,2,2,0,0,1,0-3.93,3,3,0,0,1,1.13.22l.28-1.07a3.63,3.63,0,0,0-1.48-.27,3,3,0,0,0-3.26,3.18,2.84,2.84,0,0,0,3.13,3,3.67,3.67,0,0,0,1.53-.26Z"/><path class="cls-40" d="M99.4,221.74l.35-1.26c.1-.35.19-.8.28-1.16h0c.09.36.19.8.3,1.16l.37,1.26Zm1.52,1,.46,1.54h1.45l-1.85-6H99.2l-1.82,6h1.4l.42-1.54ZM92,218.31v6h1.35v-4.87h2.27v-1.11Zm-6.34,3.43.35-1.26c.1-.35.19-.8.28-1.16h0c.09.36.2.8.3,1.16l.38,1.26Zm1.51,1,.46,1.54h1.46l-1.86-6H85.49l-1.83,6h1.4l.43-1.54Zm-7.57,1.54H81l-.33-6H78.86l-.64,2c-.2.66-.4,1.45-.57,2.14h0c-.13-.7-.32-1.44-.5-2.13l-.59-2h-1.8l-.38,6H75.6l.11-2.27c0-.75.07-1.67.1-2.48h0c.14.79.35,1.64.54,2.34l.64,2.31h1.06l.72-2.33c.23-.7.48-1.55.67-2.32h0c0,.87,0,1.74.05,2.46Zm-12.95-6,2,4.11a.26.26,0,0,1,0,.27.87.87,0,0,1-.81.56,2.27,2.27,0,0,1-.44,0l-.1,1.08a1.89,1.89,0,0,0,.67.1,1.94,1.94,0,0,0,1.58-.79,9.49,9.49,0,0,0,1.18-2.39l1.12-2.9H70.49l-.65,2.09c-.15.5-.24.9-.32,1.16h0c-.13-.37-.26-.72-.42-1.15l-.87-2.1Zm-5.36,3.12.48,0a1.5,1.5,0,0,1,.89.26.81.81,0,0,1,.32.68.9.9,0,0,1-.29.69,1.33,1.33,0,0,1-.88.31,2.82,2.82,0,0,1-.52,0ZM60,218.31v5.95a9.48,9.48,0,0,0,1.46.09,3.72,3.72,0,0,0,2.42-.69,1.73,1.73,0,0,0,.57-1.35,1.68,1.68,0,0,0-.69-1.43,2.9,2.9,0,0,0-1.68-.48,5.54,5.54,0,0,0-.73,0v-1H64v-1.1Z"/><path class="cls-40" d="M170.75,156.23v6h1.34v-2.5h.26c.73,0,1,.51,1.2,1.19a9.71,9.71,0,0,0,.47,1.31h1.45a16.13,16.13,0,0,1-.69-1.88,1.94,1.94,0,0,0-1.37-1.45l2.09-2.65h-1.64l-1.65,2.49h-.12v-2.49Zm-8.23,0v6h1.54l1.22-2.16a18.85,18.85,0,0,0,1-2.12h0a24.57,24.57,0,0,0-.1,2.51v1.77h1.24v-6h-1.38l-1.29,2.35c-.35.64-.75,1.43-1.06,2.13h0c.05-.8.07-1.75.07-2.7v-1.78Zm-5.82,6h1.36v-4.84h1.63v-1.14H155.1v1.14h1.6ZM152.18,161a3.59,3.59,0,0,1-1.13.19,1.78,1.78,0,0,1-1.91-2,1.8,1.8,0,0,1,1.9-2,3.07,3.07,0,0,1,1.14.22l.27-1.07a3.57,3.57,0,0,0-1.47-.27,3,3,0,0,0-3.26,3.18,2.84,2.84,0,0,0,3.13,3,3.75,3.75,0,0,0,1.53-.26Zm-10.31-1.33.36-1.26c.09-.35.18-.8.27-1.16h0c.09.36.19.8.3,1.16l.37,1.26Zm1.52,1,.46,1.53h1.45l-1.85-6h-1.77l-1.83,6h1.4l.43-1.53ZM133,156.23v2.62a3.08,3.08,0,0,1-.45,2,1.14,1.14,0,0,1-.68.32l.17,1.09a2.54,2.54,0,0,0,1.19-.29c.9-.54,1.1-1.72,1.1-3.25v-1.42h1.35v4.87H137v-6Zm-8.63,0v6h1.36v-4.87h2.12v4.87h1.36v-6Z"/><path class="cls-40" d="M167.55,218.31v2.62a3.09,3.09,0,0,1-.45,2,1.14,1.14,0,0,1-.68.32l.17,1.09a2.46,2.46,0,0,0,1.19-.3c.9-.53,1.1-1.71,1.1-3.24v-1.42h1.35v4.87h1.35v-6Zm-7.83,0v2.62a3.15,3.15,0,0,1-.45,2,1.14,1.14,0,0,1-.68.32l.17,1.09a2.42,2.42,0,0,0,1.18-.3c.91-.53,1.1-1.71,1.1-3.24v-1.42h1.36v4.87h1.35v-6Zm-7,3.43.36-1.26c.09-.35.18-.8.27-1.16h0c.09.36.19.8.3,1.16l.37,1.26Zm1.52,1,.46,1.54h1.45l-1.85-6h-1.77l-1.83,6h1.4l.43-1.54ZM146,224.29h1.36v-4.84H149v-1.14h-4.6v1.14H146Zm-4.45-3.63h-2.19v-1.24h2.33v-1.11H138v6h3.81v-1.11h-2.45v-1.42h2.19Zm-8,3.63h1.32l-.33-6h-1.76l-.64,2c-.2.66-.4,1.45-.57,2.14h0c-.13-.7-.32-1.44-.5-2.13l-.59-2h-1.8l-.38,6h1.25l.11-2.27c0-.75.07-1.67.1-2.48h0c.14.78.35,1.64.54,2.34l.64,2.31H132l.72-2.33c.23-.7.48-1.55.67-2.32h0c0,.87,0,1.74.05,2.46Z"/><path class="cls-40" d="M138.54,191.23l.1,0h.07a18,18,0,0,1,2.09-.32q1-.11,2.16-.12a.49.49,0,0,1,.25-.62l.2-.09a1.3,1.3,0,0,1,.38-.52,1.22,1.22,0,0,1,.86-.24h.06a1.17,1.17,0,0,1,.31-.51,1,1,0,0,1,.75-.32,1.45,1.45,0,0,1,1.42-1.15h.06a1.57,1.57,0,0,1,.3-.64,1.44,1.44,0,0,1,1-.49,1.54,1.54,0,0,1,.21-.72,1.24,1.24,0,0,1,.45-.46,1.39,1.39,0,0,1-.12-.28,1.67,1.67,0,0,1-.05-.31h-.23a1.41,1.41,0,0,1-.69-.17,1.77,1.77,0,0,1-.24-.17,1.18,1.18,0,0,1-.19.11,1.47,1.47,0,0,1-.6.13,1.59,1.59,0,0,1-.5-.09l-.2-.09h0a1.33,1.33,0,0,1-.34.33,1.44,1.44,0,0,1-.79.22,1.35,1.35,0,0,1-.5-.09h0l-.06,0a1.38,1.38,0,0,1-.31.33,1.46,1.46,0,0,1-.85.27,1.33,1.33,0,0,1-.45-.08l-.1,0a1.28,1.28,0,0,1-.37.49,1.42,1.42,0,0,1-.9.31,1.77,1.77,0,0,1-.41-.05h0a1.31,1.31,0,0,1-.37.56,1.38,1.38,0,0,1-1,.36l-.28,0a1.29,1.29,0,0,1-.35.55,1.35,1.35,0,0,1-1,.39h-.16a1.54,1.54,0,0,1-.29.67,1.38,1.38,0,0,1-1,.51h-.18a1.5,1.5,0,0,1-.25.79,1.38,1.38,0,0,1-.54.47,1.35,1.35,0,0,1,.08.36,2.44,2.44,0,0,1,0,.27,1.32,1.32,0,0,1,.39.15,1.24,1.24,0,0,1,.51.53.53.53,0,0,1,.06.37l0,0c.43-.16,1-.34,1.54-.51m12.09,5.41v-.83a7,7,0,0,1-1.6.77,21,21,0,0,1-11.77,0,7,7,0,0,1-1.6-.76v.49a.2.2,0,0,1,0,.07v2a.15.15,0,0,1,0,.07v1.61a.81.81,0,0,0,.31.54,4.14,4.14,0,0,0,1.26.72,10.31,10.31,0,0,0,1,.35c.38.1.79.19,1.22.27a17,17,0,0,0,1.77.23c.6,0,1.24.08,1.89.08a20.77,20.77,0,0,0,2.3-.12,17.91,17.91,0,0,0,2-.31,11.61,11.61,0,0,0,2.24-.78,3.15,3.15,0,0,0,.75-.53.73.73,0,0,0,.22-.45v-3.43m1.14-2.43v2.42a.17.17,0,0,1,0,.07v3.37a1.82,1.82,0,0,1-.53,1.23,4,4,0,0,1-.69.56h0a4.57,4.57,0,0,1-.58.32.39.39,0,0,1-.14,0,13.27,13.27,0,0,1-1.93.65l-.12,0a17.17,17.17,0,0,1-2.22.36,21,21,0,0,1-2.42.13c-.68,0-1.35,0-2-.08s-1.27-.14-1.87-.25-.91-.19-1.32-.3a11.3,11.3,0,0,1-1.16-.38,5.26,5.26,0,0,1-1.61-1,1.89,1.89,0,0,1-.68-1.38v-6a1.69,1.69,0,0,1,.37-1,3.21,3.21,0,0,1,.9-.79.56.56,0,0,1,.16-.07h0l.12-.06a.63.63,0,0,1-.17-.19.14.14,0,0,0-.06-.07.26.26,0,0,0-.14,0h-.08a.55.55,0,0,1-.48-.12.93.93,0,0,1-.15-.13l-.12-.13a.57.57,0,0,1-.06-.67.33.33,0,0,0,0-.24.24.24,0,0,0-.07-.17h0a.57.57,0,0,1-.14-.6c0-.07.05-.14.07-.2a1.86,1.86,0,0,1,.1-.2h0a.55.55,0,0,1,.49-.31h.06a.23.23,0,0,0,.14-.09.33.33,0,0,0,.05-.22v-.05a.56.56,0,0,1,.14-.52,1.57,1.57,0,0,1,.18-.19l.2-.2h0a.55.55,0,0,1,.56-.13h.14a.23.23,0,0,0,.17-.08.4.4,0,0,0,.06-.22v0a.55.55,0,0,1,.23-.51l.2-.15h0l.16-.11a.58.58,0,0,1,.58-.09h.12a.22.22,0,0,0,.18-.06.31.31,0,0,0,.09-.21.59.59,0,0,1,.28-.47l.08,0h0l.24-.15a.6.6,0,0,1,.61,0l0,0h.08a.25.25,0,0,0,.18-.06.28.28,0,0,0,.09-.18.58.58,0,0,1,.32-.48l.08,0,.39-.18a.56.56,0,0,1,.57,0l.06,0h.09a.27.27,0,0,0,.17,0,.26.26,0,0,0,.09-.17.57.57,0,0,1,.36-.42l.11-.05.39-.14a.55.55,0,0,1,.55.09l.05,0,.1,0a.26.26,0,0,0,.17-.05.24.24,0,0,0,.08-.11.59.59,0,0,1,.4-.41l.13,0,.24-.07a.6.6,0,0,1,.54.14l.06,0h.1a.35.35,0,0,0,.16,0,.31.31,0,0,0,.08-.11.55.55,0,0,1,.44-.35l.27,0,.22,0a.58.58,0,0,1,.5.15l.06,0,.1,0a.23.23,0,0,0,.13,0l.06,0a.56.56,0,0,1,.46-.23h.37a.56.56,0,0,1,.5.29l.07.07.13,0h.09l.06,0a.57.57,0,0,1,.55,0l.28.16a1.88,1.88,0,0,1,.23.16.57.57,0,0,1,.18.65.39.39,0,0,0,0,.24.3.3,0,0,0,.09.13.57.57,0,0,1,.25.59,2.17,2.17,0,0,1-.07.24,1.89,1.89,0,0,1-.06.18.59.59,0,0,1-.48.4h0a.19.19,0,0,0-.14.1.4.4,0,0,0-.05.24v0h0a.59.59,0,0,1-.13.5c-.09.11-.19.21-.29.31l0,0a.56.56,0,0,1-.52.18h-.07s0,0,0,0a.3.3,0,0,0-.18.08.35.35,0,0,0-.07.23h0a.55.55,0,0,1-.22.47l-.17.14-.15.11a.58.58,0,0,1-.54.11h-.1a.25.25,0,0,0-.18.06.32.32,0,0,0-.09.22h0a.57.57,0,0,1-.27.44l-.46.28a.55.55,0,0,1-.51,0,.43.43,0,0,0-.06.17h0a.5.5,0,0,1-.22.38l-.16.1-.13.08a.49.49,0,0,1-.47.05l0,0h0a.2.2,0,0,0-.16,0,.26.26,0,0,0-.09.17h0a.48.48,0,0,1-.2.32,22.79,22.79,0,0,1,2.46.24,13.82,13.82,0,0,1,2.86.73l.05,0a6.42,6.42,0,0,1,1.36.75.42.42,0,0,1,.14.09,2.58,2.58,0,0,1,.59.66,1.63,1.63,0,0,1,.22.82h0a.62.62,0,0,1,0,.13m-12.88-1.89h0c-.57.17-1.07.34-1.47.49s-.76.3-1,.4l0,0a2.6,2.6,0,0,0-.59.5.59.59,0,0,0-.13.35c0,.49.75,1,2,1.41a19.89,19.89,0,0,0,11,0c1.22-.42,2-.92,2-1.41h0a.49.49,0,0,0-.07-.24,1.3,1.3,0,0,0-.28-.32h0a5,5,0,0,0-1.21-.69l-.07,0a12.76,12.76,0,0,0-2.62-.67,22.33,22.33,0,0,0-3.19-.25h-.05c-.78,0-1.53,0-2.23.11a15.85,15.85,0,0,0-2,.32"/><path class="cls-40" d="M146.63,194.52a.57.57,0,1,1-.29,1.1,11.71,11.71,0,0,0-1.49-.27,13.23,13.23,0,0,0-1.71-.1.58.58,0,0,1,0-1.15,15.42,15.42,0,0,1,1.84.11,10.54,10.54,0,0,1,1.65.31"/><path class="cls-40" d="M149.23,199.25a.57.57,0,0,1,.54,1,11.21,11.21,0,0,1-3.09,1,22.09,22.09,0,0,1-4,.34.57.57,0,0,1-.57-.57.58.58,0,0,1,.57-.58,20.52,20.52,0,0,0,3.76-.32,10,10,0,0,0,2.76-.88"/><path class="cls-40" d="M136.31,197.75a.58.58,0,1,1,1.15,0v2.13a.58.58,0,1,1-1.15,0Z"/><path class="cls-40" d="M155.52,190.9a3.47,3.47,0,0,1-1.16-2.61h0a3.49,3.49,0,0,1,6-2.46,3.51,3.51,0,0,1,1,2.47,3.49,3.49,0,0,1-.92,2.36,3.46,3.46,0,0,1-1.16.84,3.52,3.52,0,0,1-1.41.29,3.46,3.46,0,0,1-2.33-.89m0-2.47a2.29,2.29,0,0,0,.49,1.35,2.34,2.34,0,0,0,.23.22l.08.06h0a2.3,2.3,0,0,0,1.56.57,2.23,2.23,0,0,0,.94-.19,2.47,2.47,0,0,0,.79-.56,2.56,2.56,0,0,0,.46-.74,2.34,2.34,0,1,0-4.53-.85s0,.09,0,.13m8.1,2.73a.39.39,0,0,1-.1.08h0l-4.8,3.38a.58.58,0,0,1-.58,0l-3.91-1.82.45,1,4.82,2.24,4.27-3c-.06-.65-.1-1.29-.15-1.94m-1.49-5.85-4.72-2.19-4.26,3,.46,5.18,4.72,2.2,4.26-3c-.15-1.73-.31-3.46-.46-5.19M157,182a.58.58,0,0,1,.57-.05l5.32,2.47a.59.59,0,0,1,.34.51v.13h0c.08,1,0,.55.14,1.59a.55.55,0,0,1,.39-.2.57.57,0,0,1,.62.52q.27,3.19.53,6.37h0a.58.58,0,0,1-.25.52l-4.8,3.37a.58.58,0,0,1-.57.05l-5.19-2.41h0l-.13-.06a.53.53,0,0,1-.28-.29l-1.17-2.6a.46.46,0,0,1-.05-.23l-.52-5.8a.56.56,0,0,1,.17-.46.64.64,0,0,1,.16-.11L157,182"/><path class="cls-40" d="M139.22,189.22a12.12,12.12,0,0,0,2-.61l.08,0,.58-.22.58-.26a17.09,17.09,0,0,0,2.77-1.49c.45-.31.81-.33.78-.4s-.29.19-.82.32a17.06,17.06,0,0,0-3,1h0a17.74,17.74,0,0,0-2.76,1.49,1.64,1.64,0,0,1-.28.16m-.31,1.2h-.25a1.51,1.51,0,0,1-.5-.07.78.78,0,0,1-.49-.43c-.22-.51.24-1.16,1.18-1.81a18.91,18.91,0,0,1,3-1.59h0A18.6,18.6,0,0,1,145,185.4c1.11-.26,1.9-.17,2.13.34s-.24,1.16-1.18,1.81a19.82,19.82,0,0,1-2.95,1.6l-.62.26-.61.24h-.07a10.68,10.68,0,0,1-2.76.75"/><path class="cls-40" d="M157.47,189.81a.56.56,0,0,1-.76.24.56.56,0,0,1-.24-.77,2.91,2.91,0,0,1,2.51-1.46.57.57,0,0,1,0,1.14,1.77,1.77,0,0,0-1.51.85"/><path class="cls-40" d="M139.53,197a.53.53,0,1,1,1.06-.06l.11,2.12a.53.53,0,0,1-.16.42l-1.28,1.21a.53.53,0,0,1-.75,0,.55.55,0,0,1,0-.76l1.1-1Z"/><path class="cls-40" d="M85.85,189.28l-.92.48h0l-5.48,2.89.57.27.09,0,3,1.4a.16.16,0,0,1,.09,0l2.63,1.21v-6.34Zm-1.38-.56,1.06-.56-2.21-2.95-.49.24-.08,0-1.19.58-.08,0-5.18,2.52,2.37,3.15,5.7-3,.1,0m12.66-.17-1.72-.69a.19.19,0,0,1-.1,0l-6.08-2.59-2,2.95.39.19.06,0,1.36.68,0,0,6,3,2-3.56Zm-1.32-1.75,1.14.46a.42.42,0,0,1,.16,0l1.08.45a.58.58,0,0,1,.31.75l-.06.11L95.94,193l0,8.77a.59.59,0,0,1-.31.54l-.92.47-.09,0-3.13,1.61-.09,0-3.71,1.91a.59.59,0,0,1-.26.07.55.55,0,0,1-.44-.21l-1.5-.68-.07,0-7.13-3.24a.55.55,0,0,1-.34-.52h0v-8.95a.36.36,0,0,1,0-.15l-3-4a.57.57,0,0,1,.11-.8l.1-.06h0l5.8-2.82,0,0,1.25-.61,0,0,.92-.44a.55.55,0,0,1,.72.2l2.43,3.23,2.14-3.2a.58.58,0,0,1,.7-.21l6.52,2.79,0,0m-6.6,9.94-1.21.64L88,205l2-1,4.15-2.14h0l0,0,.6-.31,0-7.65-5.48,2.87-.1,0m-1.74-.37,3.14-1.65h0l3.5-1.83-5.51-2.75-.07,0-1.33-.66-.07,0-.13-.06v6.8Zm-1.59,8.16.05,0,.91.41v-7.63l-3.71-1.7,0,0L79.51,194h0l-.43-.19v7.68Z"/><path class="cls-40" d="M70.58,190.31l-.38-.23-.32.84.26-.22,0,0Zm-1.89-4.89-.06,0-2.47.74,1.32.86,9.39-4-4.56,1.37-.12,0Zm3.73,1.26,1.73-1.26L68.09,188l.22,1s0,.05,0,.07l.36,1.69.68-1.79h0v0a.65.65,0,0,1,.16-.17h0l2.83-2.06Zm2.92,4.6a.56.56,0,0,1,.78-.21.58.58,0,0,1,.21.79l-.58,1a.58.58,0,0,1-.79.2l-3.37-2.11-.63.55-.06.07-2,1.71a.39.39,0,0,1-.1.08l0,0h0a.44.44,0,0,1-.16.06A.57.57,0,0,1,68,193l-.78-3.6a.17.17,0,0,0,0-.07L66.92,188l-2.42-1.58a.57.57,0,0,1-.17-.79.58.58,0,0,1,.32-.24h0l3.65-1.09.1,0L72,183.26l10-3a.58.58,0,0,1,.71.39.59.59,0,0,1-.06.47L80.39,185a.56.56,0,0,1-.78.21.58.58,0,0,1-.21-.79l1.53-2.59-2,.6a.56.56,0,0,1,.16.15.58.58,0,0,1-.13.8l-7.52,5.47-.09.05-.43.32.92.57h0l3.21,2Z"/><path class="cls-40" d="M80,197.37a.58.58,0,0,1,1.15,0v2.56l1.27.57a.58.58,0,0,1,.28.76.57.57,0,0,1-.75.28l-1.58-.71a.58.58,0,0,1-.37-.53Z"/><path class="cls-40" d="M91.29,197.85a.57.57,0,0,1-.77-.24.58.58,0,0,1,.25-.77l2.48-1.3a.57.57,0,1,1,.52,1Z"/><path class="cls-40" d="M89.37,187.35a.56.56,0,0,1-.3-.74.57.57,0,0,1,.74-.31l1.89.81a.57.57,0,0,1-.45,1Z"/><path class="cls-40" d="M72.75,189.57a.57.57,0,0,1-.18-.79.56.56,0,0,1,.78-.18l1,.62a.57.57,0,0,1,.18.79.56.56,0,0,1-.78.18Z"/><path class="cls-40" d="M83.52,195.29a.53.53,0,0,1,.69-.28.55.55,0,0,1,.29.7c-.06.13.19.38.33.92a13.47,13.47,0,0,1,.4,1.7.48.48,0,0,1-.54.55,7,7,0,0,0-.91.89.54.54,0,1,1-.7-.81s.57-.49,1-.83c-.06-.26-.19-.76-.32-1.23a4.49,4.49,0,0,1-.28-1.61"/><path class="cls-40" d="M159.54,137.39h-8.49v4.94a1.35,1.35,0,0,0,.39.95,1.32,1.32,0,0,0,.94.39h5.83a1.32,1.32,0,0,0,.94-.39,1.35,1.35,0,0,0,.39-.95v-4.94m-1.22-16.51,0-.06a4.37,4.37,0,0,0-1-1,3.2,3.2,0,0,0-1.16-.49.58.58,0,0,1-.45-.68s0-.62,0-1a.58.58,0,0,1,.58-.57l0,0s0,0,0,0v-1.36h-1.83V117h0v0a.07.07,0,0,0,.06.06.58.58,0,0,1,.57.57c0,.35,0,1,0,1a.63.63,0,0,1-.49.68,3.86,3.86,0,0,0-2.42,1.88,7.16,7.16,0,0,0-1,3.29h8.45c0-.26,0-.51-.08-.75a7.39,7.39,0,0,0-.32-1.25s0,0,0-.08a6.21,6.21,0,0,0-.78-1.52m-8.42,3.88a8.47,8.47,0,0,1,1.19-4.17,5.54,5.54,0,0,1,1.94-1.94,4.21,4.21,0,0,1,1.13-.44,1.28,1.28,0,0,1-.58-.32,1.25,1.25,0,0,1-.35-.79s0,0,0-.07V115.1a.58.58,0,0,1,.58-.58h3a.58.58,0,0,1,.58.58V117a1.23,1.23,0,0,1-.36.86,1.24,1.24,0,0,1-.57.32,4.42,4.42,0,0,1,1.44.64,5.22,5.22,0,0,1,.91.8h0s.08.08.21.24.13.17.19.25l0,0a7.56,7.56,0,0,1,1,1.84l0,.08a8.09,8.09,0,0,1,.36,1.43,9.42,9.42,0,0,1,.12,1.51v17.28a2.48,2.48,0,0,1-2.48,2.49h-5.83a2.48,2.48,0,0,1-2.48-2.49V124.76Zm1.14.87v10.61h8.5v-4.66h-7A.58.58,0,0,1,152,131a.57.57,0,0,1,.58-.57h7v-4.8Z"/><path class="cls-40" d="M153.23,134.4a.57.57,0,0,1-.57-.58.56.56,0,0,1,.57-.57h5a.57.57,0,0,1,.58.57.58.58,0,0,1-.58.58h-5"/><path class="cls-40" d="M153.23,128.64a.56.56,0,0,1-.57-.57.57.57,0,0,1,.57-.58h5a.58.58,0,0,1,.58.58.57.57,0,0,1-.58.57h-5"/><path class="cls-40" d="M142.79,144.82h-1.61a2.25,2.25,0,0,1-2.24-2l-1.32-10.39a.58.58,0,0,1-.56-.5l-.25-1.81a.41.41,0,0,1,0-.12.58.58,0,0,1,.58-.57h10.8a.58.58,0,0,1,.57.57.41.41,0,0,1,0,.12l-.25,1.81a.58.58,0,0,1-.56.5l-1.32,10.39a2.25,2.25,0,0,1-2.24,2ZM138,130.6l.09.7a.58.58,0,0,1,.57.5l1.38,10.9a1.12,1.12,0,0,0,1.1,1h3.19a1.12,1.12,0,0,0,1.1-1l1.38-10.9a.58.58,0,0,1,.57-.5l.09-.7Z"/><path class="cls-40" d="M139.81,132.45a.58.58,0,0,1-.58-.58.57.57,0,0,1,.58-.57h4a.57.57,0,0,1,.58.57.58.58,0,0,1-.58.58Z"/><path class="cls-40" d="M144.93,141.82a.57.57,0,1,1-1.13-.15l.18-1.4a.57.57,0,1,1,1.13.14Z"/><path class="cls-40" d="M142.57,133.12a.54.54,0,1,1,0,1.07,7.85,7.85,0,0,0-1.22,1.33l2.43,2.83a.54.54,0,0,1,0,.66l-1.88,3.1a.53.53,0,1,1-.91-.55l1.7-2.8-2.47-2.88a.53.53,0,0,1,0-.72,15.14,15.14,0,0,1,2.29-2"/><path class="cls-40" d="M152.2,120.57a.54.54,0,0,1-.09-.75.53.53,0,0,1,.75-.08l2.2,1.75a.53.53,0,0,1,.08.75.57.57,0,0,1-.11.11l-2.19,1.54a.53.53,0,1,1-.62-.87l1.62-1.14Z"/><path class="cls-40" d="M156.58,142.42c-.25.58-.58.58-.85.4s-.37-.48-.12-1.06l1.14-2.59c.25-.58.53-.61.8-.43s.42.51.17,1.08Z"/><path class="cls-40" d="M77,116.38v-.69H74.86v.86h0a.58.58,0,0,1,.39.55v4.43a2.1,2.1,0,0,1-.42,1.26,2.27,2.27,0,0,1-1.09.77,3,3,0,0,0-.58.23.9.9,0,0,0-.28.17,2.25,2.25,0,0,0-.51.72,1.9,1.9,0,0,0-.18.83V144.4a8.31,8.31,0,0,0,3.69.66,8.56,8.56,0,0,0,3.69-.68V125.52a2.05,2.05,0,0,0-.17-.83,2.28,2.28,0,0,0-.52-.72.9.9,0,0,0-.28-.17,3.23,3.23,0,0,0-.57-.23A2.18,2.18,0,0,1,77,122.8a2,2,0,0,1-.43-1.26v-4.6a.57.57,0,0,1,.43-.56m3.8,28.35h0a.59.59,0,0,1-.27.49,9,9,0,0,1-4.59,1,8.58,8.58,0,0,1-4.55-1,.58.58,0,0,1-.3-.51V125.52a3.16,3.16,0,0,1,.28-1.3,3.29,3.29,0,0,1,.78-1.1,2.37,2.37,0,0,1,.56-.37,5.29,5.29,0,0,1,.73-.29,1,1,0,0,0,.52-.36,1,1,0,0,0,.19-.56v-4l-.07,0a.59.59,0,0,1-.36-.54h0V115.1a.58.58,0,0,1,.58-.58h3.28a.58.58,0,0,1,.58.58v1.84a.58.58,0,0,1-.43.56v4a1,1,0,0,0,.19.56,1.14,1.14,0,0,0,.52.36,6,6,0,0,1,.74.29,2.52,2.52,0,0,1,.55.37,3.47,3.47,0,0,1,.79,1.1,3.16,3.16,0,0,1,.28,1.3Z"/><path class="cls-40" d="M77.34,125.63a.59.59,0,0,1,.63.54.57.57,0,0,1-.53.62c-.41,0-.85.06-1.33.06-.32,0-.65,0-1,0h0l-.37,0h-.06c-.5-.06-.94-.14-1.2-.19l-.09,0h0l-.1,0h0l-.07,0-.22-.06a.59.59,0,0,1-.37-.74.58.58,0,0,1,.73-.37l.18.06.19,0h.06c.23,0,.61.11,1.05.17h.07a11.35,11.35,0,0,0,1.28.07c.41,0,.83,0,1.23-.06"/><path class="cls-40" d="M85,144.42h-.06a7.22,7.22,0,0,0-1.32.17l.46.15a9.65,9.65,0,0,0,2.57.31,9.25,9.25,0,0,0,2.57-.31,2.71,2.71,0,0,0,.69-.26s-1.75-.09-3-.13h-.33Zm-1.94-16.26a19.84,19.84,0,0,0,.37,3.3,12.79,12.79,0,0,0,1.23,3.66s.86,1.44,2,1.53a1.77,1.77,0,0,0,1-.37,3.8,3.8,0,0,0,1-1.12l0,0a12.26,12.26,0,0,0,1.21-3.56,18.93,18.93,0,0,0,.39-3.4c-.16.05-.33.09-.52.13a16.47,16.47,0,0,1-6.66-.13m6.43-1,.12,0a16.59,16.59,0,0,0-5.79,0l-.2,0a16.32,16.32,0,0,0,5.87,0m-5.87,8.49v0s0,0,0,0h0a.56.56,0,0,0,0-.08h0l0,0-.18-.36a16.24,16.24,0,0,1-1.06-3.43,19.74,19.74,0,0,1-.38-4.5v-.07a.44.44,0,0,1,0-.16.49.49,0,0,1,.13-.27,2.52,2.52,0,0,1,1.53-.74,16.74,16.74,0,0,1,6.15,0h.12a4.33,4.33,0,0,1,1,.3.92.92,0,0,1,.56.83v.1a19.79,19.79,0,0,1-.4,4.57,13.66,13.66,0,0,1-1.36,3.93l0,0a4.85,4.85,0,0,1-1.29,1.47,3.19,3.19,0,0,1-1.09.52v5.47c1.64.06,3.84.19,3.84,1.28,0,.62-.58,1.09-1.52,1.37a11.55,11.55,0,0,1-5.8,0c-.93-.28-1.52-.75-1.52-1.37s.37-.79,1-1a7,7,0,0,1,1.69-.25H85l1.11-.05v-5.48a2.85,2.85,0,0,1-.87-.38l-.07,0,0,0a2.72,2.72,0,0,1-.36-.28l0,0a5.18,5.18,0,0,1-1.07-1.34"/><path class="cls-40" d="M75.39,144.17a.58.58,0,0,1,0-1.15,8,8,0,0,0,2.22-.22v-5.75a.58.58,0,0,1,1.16,0v6.14h0a.58.58,0,0,1-.33.53,8.17,8.17,0,0,1-3.09.45"/><path class="cls-40" d="M88.31,134a.59.59,0,0,1-.74.35.58.58,0,0,1-.35-.74,19.56,19.56,0,0,0,1-3.92.57.57,0,1,1,1.14.11,19.71,19.71,0,0,1-1,4.2"/><path class="cls-40" d="M74.71,129.63a.55.55,0,0,1,.73-.23.54.54,0,0,1,.22.73l-1.39,2.64,2.25,2.79a.55.55,0,0,1,0,.72l-2.15,2.4a.54.54,0,0,1-.8-.72l1.86-2.08-2.17-2.7a.55.55,0,0,1-.07-.6Z"/><path class="cls-40" d="M83.89,128.1a.55.55,0,0,1,.15-.75.55.55,0,0,1,.75.15l2,3a.53.53,0,0,1,0,.62h0l-1.19,1.58a.54.54,0,0,1-.86-.65l1-1.27Z"/></g></g></g></svg>