<svg xmlns="http://www.w3.org/2000/svg" xmlns:xlink="http://www.w3.org/1999/xlink" viewBox="0 0 347.81 343.6"><defs><style>.cls-1{fill:none;}.cls-2{isolation:isolate;}.cls-3{fill:#222831;}.cls-10,.cls-11,.cls-3,.cls-33,.cls-34,.cls-35,.cls-36,.cls-37,.cls-38,.cls-4,.cls-41,.cls-42,.cls-44,.cls-7,.cls-8,.cls-9{fill-rule:evenodd;}.cls-4{fill:#1c2023;}.cls-5{clip-path:url(#clip-path);}.cls-6{fill:url(#Безымянный_градиент_2);}.cls-7{fill:#494e51;}.cls-8{fill:#202c33;}.cls-9{fill:#363f43;}.cls-10{fill:#525961;}.cls-11{fill:#79818d;}.cls-12{opacity:0.7;}.cls-13{clip-path:url(#clip-path-2);}.cls-14{clip-path:url(#clip-path-3);}.cls-15{clip-path:url(#clip-path-4);}.cls-16{clip-path:url(#clip-path-5);}.cls-17{clip-path:url(#clip-path-6);}.cls-18{clip-path:url(#clip-path-7);}.cls-19{clip-path:url(#clip-path-8);}.cls-20{clip-path:url(#clip-path-9);}.cls-21{clip-path:url(#clip-path-10);}.cls-22{clip-path:url(#clip-path-11);}.cls-23{clip-path:url(#clip-path-12);}.cls-24{clip-path:url(#clip-path-13);}.cls-25{clip-path:url(#clip-path-14);}.cls-26{clip-path:url(#clip-path-15);}.cls-27{clip-path:url(#clip-path-16);}.cls-28{clip-path:url(#clip-path-17);}.cls-29{clip-path:url(#clip-path-18);}.cls-30{clip-path:url(#clip-path-19);}.cls-31{clip-path:url(#clip-path-20);}.cls-32{clip-path:url(#clip-path-21);}.cls-33{fill:#293237;}.cls-34{fill:#4a555f;}.cls-35{fill:#0a1525;}.cls-36{fill:#4c555d;}.cls-37{fill:#77808c;}.cls-38{fill:#45505c;}.cls-39{mix-blend-mode:multiply;opacity:0.1;}.cls-40{clip-path:url(#clip-path-22);}.cls-41{fill:#595a5c;}.cls-42,.cls-43{fill:#f58220;}.cls-44{fill:#e47d27;}</style><clipPath id="clip-path" transform="translate(56.09 15.99)"><path class="cls-1" d="M13.81,59.46,18.4,236.19a16.42,16.42,0,0,0,16.4,16h166a16.42,16.42,0,0,0,16.4-16l4.59-176.73Z"/></clipPath><linearGradient id="Безымянный_градиент_2" x1="-346.19" y1="553.52" x2="-345.19" y2="553.52" gradientTransform="matrix(0, 189.76, 189.76, 0, -104918.23, 65768.75)" gradientUnits="userSpaceOnUse"><stop offset="0" stop-color="#6d6f71"/><stop offset="1" stop-color="#6d7072"/></linearGradient><clipPath id="clip-path-2" transform="translate(56.09 15.99)"><rect class="cls-1" x="131.51" y="60.02" width="9.44" height="8.86"/></clipPath><clipPath id="clip-path-3" transform="translate(56.09 15.99)"><rect class="cls-1" x="27.6" y="60.02" width="9.44" height="8.86"/></clipPath><clipPath id="clip-path-4" transform="translate(56.09 15.99)"><rect class="cls-1" x="151.68" y="60.02" width="9.44" height="8.86"/></clipPath><clipPath id="clip-path-5" transform="translate(56.09 15.99)"><rect class="cls-1" x="47.77" y="60.02" width="9.44" height="8.86"/></clipPath><clipPath id="clip-path-6" transform="translate(56.09 15.99)"><rect class="cls-1" x="171.84" y="60.02" width="9.44" height="8.86"/></clipPath><clipPath id="clip-path-7" transform="translate(56.09 15.99)"><rect class="cls-1" x="67.93" y="60.02" width="9.44" height="8.86"/></clipPath><clipPath id="clip-path-8" transform="translate(56.09 15.99)"><rect class="cls-1" x="192.01" y="60.02" width="9.44" height="8.86"/></clipPath><clipPath id="clip-path-9" transform="translate(56.09 15.99)"><rect class="cls-1" x="88.1" y="60.02" width="9.44" height="8.86"/></clipPath><clipPath id="clip-path-10" transform="translate(56.09 15.99)"><rect class="cls-1" x="212.17" y="60.02" width="9.44" height="8.86"/></clipPath><clipPath id="clip-path-11" transform="translate(56.09 15.99)"><rect class="cls-1" x="108.26" y="60.02" width="9.44" height="8.86"/></clipPath><clipPath id="clip-path-12" transform="translate(56.09 15.99)"><rect class="cls-1" x="117.7" y="60.02" width="9.44" height="8.86"/></clipPath><clipPath id="clip-path-13" transform="translate(56.09 15.99)"><rect class="cls-1" x="13.8" y="60.02" width="9.44" height="8.86"/></clipPath><clipPath id="clip-path-14" transform="translate(56.09 15.99)"><rect class="cls-1" x="137.87" y="60.02" width="9.44" height="8.86"/></clipPath><clipPath id="clip-path-15" transform="translate(56.09 15.99)"><rect class="cls-1" x="33.96" y="60.02" width="9.44" height="8.86"/></clipPath><clipPath id="clip-path-16" transform="translate(56.09 15.99)"><rect class="cls-1" x="158.04" y="60.02" width="9.44" height="8.86"/></clipPath><clipPath id="clip-path-17" transform="translate(56.09 15.99)"><rect class="cls-1" x="54.13" y="60.02" width="9.44" height="8.86"/></clipPath><clipPath id="clip-path-18" transform="translate(56.09 15.99)"><rect class="cls-1" x="178.2" y="60.02" width="9.44" height="8.86"/></clipPath><clipPath id="clip-path-19" transform="translate(56.09 15.99)"><rect class="cls-1" x="74.29" y="60.02" width="9.44" height="8.86"/></clipPath><clipPath id="clip-path-20" transform="translate(56.09 15.99)"><rect class="cls-1" x="198.37" y="60.02" width="9.44" height="8.86"/></clipPath><clipPath id="clip-path-21" transform="translate(56.09 15.99)"><rect class="cls-1" x="94.46" y="60.02" width="9.44" height="8.86"/></clipPath><clipPath id="clip-path-22" transform="translate(56.09 15.99)"><rect class="cls-1" x="46.39" y="87.82" width="142.85" height="142.85"/></clipPath></defs><g class="cls-2"><g id="Layer_2" data-name="Layer 2"><g id="Слой_1" data-name="Слой 1"><path class="cls-3" d="M43.1,255.14A10.91,10.91,0,1,1,32.2,266a10.91,10.91,0,0,1,10.9-10.9" transform="translate(56.09 15.99)"/><path class="cls-4" d="M3.34,75.66H229.76A3.27,3.27,0,0,1,233.09,79l-.6,9.43a3.42,3.42,0,0,1-3.33,3.33H3.94A3.42,3.42,0,0,1,.6,88.42L0,79a3.27,3.27,0,0,1,3.33-3.33" transform="translate(56.09 15.99)"/><g class="cls-5"><rect class="cls-6" x="-15.78" y="26.22" width="267.19" height="259.18" transform="translate(4.15 75.15) rotate(-23.25)"/></g><path class="cls-7" d="M7.34,38.35h221a5.48,5.48,0,0,1,5.47,5.47V54.55A5.48,5.48,0,0,1,228.29,60H7.34a5.48,5.48,0,0,1-5.47-5.47V43.82a5.48,5.48,0,0,1,5.47-5.47" transform="translate(56.09 15.99)"/><path class="cls-8" d="M30.85,14H204.78a12.22,12.22,0,0,1,11.52,7.9l6.73,17H12.61l6.72-17A12.22,12.22,0,0,1,30.85,14" transform="translate(56.09 15.99)"/><path class="cls-9" d="M73.29,0h89.06a7.91,7.91,0,0,1,7.88,7.88v31H65.4v-31A7.91,7.91,0,0,1,73.29,0" transform="translate(56.09 15.99)"/><polygon class="cls-10" points="103.26 268.16 107.76 268.16 104.35 282.03 103.26 282.03 103.26 268.16"/><polygon class="cls-11" points="97.18 268.16 103.26 268.16 103.26 282.03 99.14 284.15 97.18 283.94 97.18 268.16"/><g class="cls-12"><g class="cls-13"><path class="cls-4" d="M131.51,60H141a9.52,9.52,0,0,0-9.44,8.87Z" transform="translate(56.09 15.99)"/></g></g><g class="cls-12"><g class="cls-14"><path class="cls-4" d="M27.6,60H37a9.53,9.53,0,0,0-9.44,8.87Z" transform="translate(56.09 15.99)"/></g></g><g class="cls-12"><g class="cls-15"><path class="cls-4" d="M151.68,60h9.44a9.52,9.52,0,0,0-9.44,8.87Z" transform="translate(56.09 15.99)"/></g></g><g class="cls-12"><g class="cls-16"><path class="cls-4" d="M47.77,60h9.44a9.52,9.52,0,0,0-9.44,8.87Z" transform="translate(56.09 15.99)"/></g></g><g class="cls-12"><g class="cls-17"><path class="cls-4" d="M171.84,60h9.44a9.53,9.53,0,0,0-9.44,8.87Z" transform="translate(56.09 15.99)"/></g></g><g class="cls-12"><g class="cls-18"><path class="cls-4" d="M67.93,60h9.44a9.53,9.53,0,0,0-9.44,8.87Z" transform="translate(56.09 15.99)"/></g></g><g class="cls-12"><g class="cls-19"><path class="cls-4" d="M192,60h9.44A9.52,9.52,0,0,0,192,68.89Z" transform="translate(56.09 15.99)"/></g></g><g class="cls-12"><g class="cls-20"><path class="cls-4" d="M88.1,60h9.44a9.52,9.52,0,0,0-9.44,8.87Z" transform="translate(56.09 15.99)"/></g></g><g class="cls-12"><g class="cls-21"><path class="cls-4" d="M212.17,60h9.44a9.53,9.53,0,0,0-9.44,8.87Z" transform="translate(56.09 15.99)"/></g></g><g class="cls-12"><g class="cls-22"><path class="cls-4" d="M108.26,60h9.44a9.53,9.53,0,0,0-9.44,8.87Z" transform="translate(56.09 15.99)"/></g></g><g class="cls-12"><g class="cls-23"><path class="cls-4" d="M127.15,60h-9.44a9.53,9.53,0,0,1,9.44,8.87Z" transform="translate(56.09 15.99)"/></g></g><g class="cls-12"><g class="cls-24"><path class="cls-4" d="M23.24,60H13.8a9.53,9.53,0,0,1,9.44,8.87Z" transform="translate(56.09 15.99)"/></g></g><g class="cls-12"><g class="cls-25"><path class="cls-4" d="M147.31,60h-9.44a9.52,9.52,0,0,1,9.44,8.87Z" transform="translate(56.09 15.99)"/></g></g><g class="cls-12"><g class="cls-26"><path class="cls-4" d="M43.4,60H34a9.52,9.52,0,0,1,9.44,8.87Z" transform="translate(56.09 15.99)"/></g></g><g class="cls-12"><g class="cls-27"><path class="cls-4" d="M167.48,60H158a9.53,9.53,0,0,1,9.44,8.87Z" transform="translate(56.09 15.99)"/></g></g><g class="cls-12"><g class="cls-28"><path class="cls-4" d="M63.57,60H54.13a9.53,9.53,0,0,1,9.44,8.87Z" transform="translate(56.09 15.99)"/></g></g><g class="cls-12"><g class="cls-29"><path class="cls-4" d="M187.64,60H178.2a9.52,9.52,0,0,1,9.44,8.87Z" transform="translate(56.09 15.99)"/></g></g><g class="cls-12"><g class="cls-30"><path class="cls-4" d="M83.73,60H74.29a9.52,9.52,0,0,1,9.44,8.87Z" transform="translate(56.09 15.99)"/></g></g><g class="cls-12"><g class="cls-31"><path class="cls-4" d="M207.81,60h-9.44a9.53,9.53,0,0,1,9.44,8.87Z" transform="translate(56.09 15.99)"/></g></g><g class="cls-12"><g class="cls-32"><path class="cls-4" d="M103.9,60H94.46a9.53,9.53,0,0,1,9.44,8.87Z" transform="translate(56.09 15.99)"/></g></g><polygon class="cls-33" points="182.54 75.96 188.21 75.96 187.19 90.52 183.55 90.52 182.54 75.96"/><polygon class="cls-33" points="78.63 75.96 84.3 75.96 83.28 90.52 79.64 90.52 78.63 75.96"/><polygon class="cls-33" points="202.7 75.96 208.37 75.96 207.36 90.52 203.71 90.52 202.7 75.96"/><polygon class="cls-33" points="98.79 75.96 104.46 75.96 103.45 90.52 99.8 90.52 98.79 75.96"/><polygon class="cls-33" points="222.87 75.96 228.54 75.96 227.53 90.52 223.88 90.52 222.87 75.96"/><polygon class="cls-33" points="118.96 75.96 124.63 75.96 123.62 90.52 119.97 90.52 118.96 75.96"/><polygon class="cls-33" points="243.03 75.96 248.7 75.96 247.69 90.52 244.04 90.52 243.03 75.96"/><polygon class="cls-33" points="139.12 75.96 144.79 75.96 143.78 90.52 140.13 90.52 139.12 75.96"/><polygon class="cls-33" points="263.2 75.96 268.87 75.96 267.86 90.52 264.21 90.52 263.2 75.96"/><polygon class="cls-33" points="159.29 75.96 164.96 75.96 163.95 90.52 160.3 90.52 159.29 75.96"/><path class="cls-34" d="M43.1,260.88A5.16,5.16,0,1,1,37.94,266a5.16,5.16,0,0,1,5.16-5.16" transform="translate(56.09 15.99)"/><path class="cls-35" d="M188,255.14A10.91,10.91,0,1,1,177.12,266,10.9,10.9,0,0,1,188,255.14" transform="translate(56.09 15.99)"/><polygon class="cls-36" points="248.19 268.16 252.69 268.16 249.28 282.03 248.19 282.03 248.19 268.16"/><polygon class="cls-37" points="242.1 268.16 248.19 268.16 248.19 282.03 244.07 284.15 242.1 283.94 242.1 268.16"/><path class="cls-38" d="M188,260.88a5.16,5.16,0,1,1-5.17,5.16,5.16,5.16,0,0,1,5.17-5.16" transform="translate(56.09 15.99)"/><g class="cls-39"><g class="cls-40"><path class="cls-41" d="M54.33,87.82h127a8,8,0,0,1,7.94,7.94v127a8,8,0,0,1-7.94,7.94h-127a8,8,0,0,1-7.94-7.94v-127a8,8,0,0,1,7.94-7.94" transform="translate(56.09 15.99)"/></g></g><path class="cls-42" d="M135.5,124.23a10.94,10.94,0,0,1,1.39.25,4.2,4.2,0,0,0,3.71-.41,10.48,10.48,0,0,1,1.3-.54.26.26,0,0,1,.31.12.25.25,0,0,1-.05.33c-.24.22-.47.46-.7.7a3.25,3.25,0,0,1-5.28.58l-.83-.53a.28.28,0,0,1-.13-.31.28.28,0,0,1,.28-.19m-.35-3.63a3.44,3.44,0,0,1,1.58.71,3.71,3.71,0,0,1,1.19,1.75.27.27,0,0,1,0,.26.26.26,0,0,1-.26.08,3.43,3.43,0,0,1-2.76-2.46.24.24,0,0,1,.06-.25.27.27,0,0,1,.24-.09m6.13,20.25.79-1.32a3.2,3.2,0,0,1-.73-.1l-.05,0a2.51,2.51,0,0,0-.9-.09,2.57,2.57,0,0,0-.82.28l0,0a3,3,0,0,1-1.14.33,4.18,4.18,0,0,1-2.59-.68.27.27,0,0,1-.1-.36,5.41,5.41,0,0,0,.7-3.2,5.55,5.55,0,0,0-1.44-3.44.26.26,0,0,1,0-.33,5.58,5.58,0,0,0,.65-3.67,4.58,4.58,0,0,0-.52-1.85.27.27,0,0,1,0-.33.29.29,0,0,1,.33,0c.26.15.5.31.75.48a3.54,3.54,0,0,0,5.6-.62c.21-.22.41-.43.63-.63a.27.27,0,0,1,.33,0,.29.29,0,0,1,.11.31,4.44,4.44,0,0,0-.11,1.92,5.55,5.55,0,0,0,1.44,3.44.26.26,0,0,1,0,.33,5.58,5.58,0,0,0-.65,3.67,5.12,5.12,0,0,0,.39,1.44l.75-1.29a5.3,5.3,0,0,1,.81-3.86.55.55,0,0,0-.08-.77,5.29,5.29,0,0,1-1.64-3.61,3.26,3.26,0,0,1,1.27-3.41.57.57,0,0,0,.15-.54.54.54,0,0,0-.4-.4l-.09,0a5.43,5.43,0,0,0-2-.25,7.89,7.89,0,0,0-2.59.85l-.41.2a.26.26,0,0,1-.27,0,.24.24,0,0,1-.1-.25,6.28,6.28,0,0,1,.63-1.89c.09-.18.18-.36.26-.54a.57.57,0,0,0-.29-.74.56.56,0,0,0-.74.29l-.24.5c-.09.19-.19.39-.28.6a.26.26,0,0,1-.21.15.25.25,0,0,1-.24-.1,4.63,4.63,0,0,0-4.19-1.8.57.57,0,0,0-.49.63,5.34,5.34,0,0,0,1,2.64.25.25,0,0,1,0,.26.25.25,0,0,1-.21.16,5.65,5.65,0,0,0-1.77.66l-.08,0a.56.56,0,0,0-.31.48.6.6,0,0,0,.27.5,3.23,3.23,0,0,1,2,3,5.27,5.27,0,0,1-.81,3.87.57.57,0,0,0,.09.78,5.28,5.28,0,0,1,1.63,3.6,5.46,5.46,0,0,1-.89,3.47.55.55,0,0,0,.15.75,5.65,5.65,0,0,0,3.75,1.13,4.27,4.27,0,0,0,1.57-.47,1.89,1.89,0,0,1,.65-.24h0a2.45,2.45,0,0,1,.72.09h0" transform="translate(56.09 15.99)"/><path class="cls-42" d="M153.09,130.18l.64-.84a.38.38,0,0,1,.49-.11l.57.29a.39.39,0,0,1,.19.47l-.33,1a.24.24,0,0,1-.17.17.26.26,0,0,1-.24,0,3.93,3.93,0,0,0-1-.52.3.3,0,0,1-.17-.18.29.29,0,0,1,0-.24m-4,2.63h0l.13-.16.06-.07a.05.05,0,0,1,0,0,2.7,2.7,0,0,1,1.52-.89h0a.09.09,0,0,1,.07,0,3.11,3.11,0,0,1,.6-.09,3.31,3.31,0,0,1,1.58.33,3.25,3.25,0,0,1,1.58,4.14l-.8,2a5.47,5.47,0,0,0-.34,3,5.82,5.82,0,0,0,2,3.52,5.9,5.9,0,0,0,3.79,1.39,5.71,5.71,0,0,0,2.37-.51l1.94-.86.08,0a.26.26,0,0,1,.17,0,.39.39,0,0,1,.1.08.24.24,0,0,1,.06.11.25.25,0,0,1,0,.24,9.3,9.3,0,0,1-3.69,3.32h0a9.32,9.32,0,0,1-4.08.95h-1a7.3,7.3,0,0,1-5.39-2.4,1.45,1.45,0,0,0-.82-.47.27.27,0,0,1-.2-.22.26.26,0,0,1,.11-.27.59.59,0,0,0,.26-.48,9.23,9.23,0,0,1,.08-1.18,15.51,15.51,0,0,1,.27-1.66,20.58,20.58,0,0,1,1.35-4.2.58.58,0,1,0-1.06-.48,22,22,0,0,0-1.44,4.47,17.61,17.61,0,0,0-.28,1.77,10.86,10.86,0,0,0-.09,1.28.58.58,0,0,0,.3.5.29.29,0,0,1,.13.27.27.27,0,0,1-.19.22,1.53,1.53,0,0,0-.79.53h0a6.85,6.85,0,0,1-2.17,1.69,10.67,10.67,0,0,1-4.42.62c-3.17,0-5.62-1-6.89-4.09a.29.29,0,0,1,0-.09.19.19,0,0,1,0-.13.28.28,0,0,1,.08-.12h0a.33.33,0,0,1,.13-.07h.13l.08,0,.79.44A5.89,5.89,0,0,0,143.1,143l5.84-9.9a2.23,2.23,0,0,1,.2-.3m11.72,16.48h0a10.37,10.37,0,0,0,4.15-3.73,1.46,1.46,0,0,0-.13-1.75,1.44,1.44,0,0,0-1.7-.38l-1.94.87a4.8,4.8,0,0,1-1.9.4,4.65,4.65,0,0,1-4.61-3.93,4.44,4.44,0,0,1,.27-2.36l.8-2a4.39,4.39,0,0,0-.32-4,.29.29,0,0,1,0-.22l.62-1.88a1.57,1.57,0,0,0-.76-1.87l-.57-.29a1.57,1.57,0,0,0-2,.45l-1.21,1.61a.23.23,0,0,1-.19.1,4.57,4.57,0,0,0-.91.17h0a3.86,3.86,0,0,0-1.7.94,4,4,0,0,0-.6.7h0l0,0-.2.31-5.84,9.91a4.72,4.72,0,0,1-6.35,1.73l-.79-.44a1.47,1.47,0,0,0-2.07,1.84,7.75,7.75,0,0,0,7.19,4.81,19.11,19.11,0,0,0,4.66-.29,6.61,6.61,0,0,0,3.64-2.46.38.38,0,0,1,.59,0,8.44,8.44,0,0,0,6.25,2.77h1a10.39,10.39,0,0,0,4.58-1.06h0" transform="translate(56.09 15.99)"/><path class="cls-43" d="M138.25,134.48a.55.55,0,0,1-1.05-.35c.08-.25,1.18-2.4,1.19-2.41a.56.56,0,1,1,1,.51s-1.07,2.08-1.13,2.25" transform="translate(56.09 15.99)"/><path class="cls-43" d="M142.13,133.57a.54.54,0,0,1-.29.73.55.55,0,0,1-.73-.29c-.05-.12-1.11-1.79-1.12-1.79a.56.56,0,0,1,.18-.77.55.55,0,0,1,.77.17s1.09,1.73,1.19,1.95" transform="translate(56.09 15.99)"/><path class="cls-43" d="M141,148.4a.55.55,0,0,1-.51-.59.56.56,0,0,1,.59-.52,7.45,7.45,0,0,0,4.61-1.33.56.56,0,0,1,.67.89A8.62,8.62,0,0,1,141,148.4" transform="translate(56.09 15.99)"/><path class="cls-43" d="M153.92,136.39a.56.56,0,1,1-1-.56,1.68,1.68,0,0,0-.07-1.85.56.56,0,0,1,0-.79.57.57,0,0,1,.79,0,2.8,2.8,0,0,1,.2,3.16" transform="translate(56.09 15.99)"/><path class="cls-43" d="M89.42,192.76A3.62,3.62,0,0,1,85,190.24v-.05l-1.23.34a7,7,0,0,0-.84-1.18l2.46-.68a.68.68,0,0,1,.86.65,2.16,2.16,0,0,0,.08.56,2.24,2.24,0,1,0,1.58-2.76h0a.68.68,0,0,1-.36-1.32,2.23,2.23,0,1,0-2.75-1.56,2.39,2.39,0,0,0,.22.52.68.68,0,0,1-.41,1l-10,2.75a.67.67,0,0,1-.86-.64,2.61,2.61,0,0,0-.08-.56A2.24,2.24,0,1,0,72,190.06h0a.68.68,0,1,1,.36,1.31,2.24,2.24,0,1,0,2.75,1.57,2.36,2.36,0,0,0-.21-.52.68.68,0,0,1,.41-1l2.59-.71v1.42l-1.48.4,0,.05a3.6,3.6,0,1,1-6.28-1.31A3.6,3.6,0,1,1,74.91,187a.06.06,0,0,1,0,0l8.54-2.34s0,0,0,0a3.6,3.6,0,1,1,6.27,1.3,3.6,3.6,0,0,1-.3,6.85" transform="translate(56.09 15.99)"/><path class="cls-43" d="M92.12,207.9l4.61-9a14.56,14.56,0,0,1,3,5.4c.28.87.46,1.62.56,2.09-1.28.56-4.83,2-8.14,1.52M75.7,199.68l4.39-3.24a.7.7,0,0,0,.3-.58l0-5.45a5.36,5.36,0,0,1-1.85,9.15,5.37,5.37,0,0,1-2.89.12m25.72,7.77a.72.72,0,0,0,.39-.76,18.64,18.64,0,0,0-.71-2.85A14.82,14.82,0,0,0,97,197.12a.7.7,0,0,0-.62-.16.73.73,0,0,0-.51.38l-2.41,4.73-1.54-.79,2.41-4.72a.74.74,0,0,0-1.31-.67l-2.41,4.72-1.54-.78,1.67-3.27a.74.74,0,1,0-1.31-.67l-1.67,3.27-1.54-.79.93-1.81a.75.75,0,0,0-.32-1,.74.74,0,0,0-1,.33l-.93,1.81-1.58-.8a6.83,6.83,0,0,0-3.27-8.52.77.77,0,0,0-.72,0A.74.74,0,0,0,79,189l-.06,6.45-5.18,3.82a.73.73,0,0,0-.3.65.51.51,0,0,0,0,.17.74.74,0,0,0,.37.43,6.79,6.79,0,0,0,5.21.41,6.7,6.7,0,0,0,3.6-2.75l1.58.8-.93,1.82a.78.78,0,0,0,0,.56.74.74,0,0,0,.37.43.73.73,0,0,0,1-.32l.93-1.82,1.54.79-1.67,3.26a.76.76,0,0,0,0,.57.7.7,0,0,0,.36.42.72.72,0,0,0,1-.32l1.67-3.26,1.54.79-2.42,4.72a.74.74,0,0,0,1.31.67l2.42-4.72,1.54.78-2.42,4.73a.73.73,0,0,0,0,.56l0,.08a.75.75,0,0,0,.49.41c4.88,1.2,10.35-1.59,10.58-1.71" transform="translate(56.09 15.99)"/><path class="cls-43" d="M98,203.14a.71.71,0,0,0-.36-.42.75.75,0,0,0-.57-.05.7.7,0,0,0-.42.37.73.73,0,0,0-.05.56A.74.74,0,0,0,97,204a.72.72,0,0,0,.56,0,.76.76,0,0,0,.43-.36.75.75,0,0,0,0-.57" transform="translate(56.09 15.99)"/><path class="cls-43" d="M98.62,122.55,70.07,132.61l-.45-1.3a1.36,1.36,0,0,1,.84-1.75l26-9.15a1.39,1.39,0,0,1,1.76.85Zm1.15,3.25a.69.69,0,0,1-.42.87l-3.25,1.15a1.38,1.38,0,0,1-.91-2.6l3.89-1.37Zm.91,2.59a15.14,15.14,0,0,1,.77,3.38l-2.22.78A9,9,0,0,0,93.77,144l.78,2.22a15.56,15.56,0,0,1-3.12,1.52,15.34,15.34,0,0,1-3.22.75l-.8-2.25A9,9,0,0,0,76,140.73l-2.35.83a14.72,14.72,0,0,1-1.52-3.11l-.27-.76a2.09,2.09,0,0,0,.69-.12l3.25-1.14a2.76,2.76,0,0,0,1.68-3.51,2.71,2.71,0,0,0-.81-1.17L92.94,126a2.66,2.66,0,0,0,.11,1.42,2.75,2.75,0,0,0,3.51,1.68L99.8,128a1.92,1.92,0,0,0,.61-.34Zm-5,17-.66-1.85a7.58,7.58,0,0,1,4.62-9.65l1.86-.66a15.18,15.18,0,0,1-5.82,12.16m-8.94,3.2a15.2,15.2,0,0,1-12.31-5.82l2-.7a7.57,7.57,0,0,1,9.65,4.62ZM70.53,133.91l3.89-1.37a1.37,1.37,0,1,1,.92,2.59l-3.25,1.15a.69.69,0,0,1-.87-.43ZM96,119.12,70,128.26a2.75,2.75,0,0,0-1.68,3.51l2.51,7.14a16.51,16.51,0,0,0,31.15-11l-2.52-7.13A2.75,2.75,0,0,0,96,119.12" transform="translate(56.09 15.99)"/><path class="cls-43" d="M80.58,127.63a.63.63,0,0,1-.23-1.23l5.14-1,3.56-2a.67.67,0,0,1,.3-.08h1.42a.63.63,0,1,1,0,1.25H89.52l-3.51,2a.4.4,0,0,1-.18.07Z" transform="translate(56.09 15.99)"/><path class="cls-43" d="M77.92,138.65a.64.64,0,0,1-.81-.35.62.62,0,0,1,.35-.81L82,135.66a.62.62,0,0,1,.81.34.94.94,0,0,1,0,.16l.47,2.54h2.56a.63.63,0,0,1,0,1.25H82.79a.6.6,0,0,1-.61-.5l-.44-2.34Z" transform="translate(56.09 15.99)"/><path class="cls-43" d="M94.07,131.81a.62.62,0,1,1,.3,1.2l-2.52.63L93,135.12a.62.62,0,0,1,0,.78l-1.49,1.95a.62.62,0,1,1-1-.75l1.21-1.6-1.41-1.83a.6.6,0,0,1-.13-.25.62.62,0,0,1,.45-.75Z" transform="translate(56.09 15.99)"/><path class="cls-43" d="M85.23,129.68a.62.62,0,0,1,.88.1.63.63,0,0,1-.11.88l-1.42,1.12,3.25,1.61a.61.61,0,0,1,.28.83.62.62,0,0,1-.83.28l-4.11-2a.55.55,0,0,1-.24-.19.61.61,0,0,1,.1-.87Z" transform="translate(56.09 15.99)"/><path class="cls-43" d="M173.11,102h1.79V94.21h-1.79Zm-3.45-3.54a1,1,0,0,1,.29,0c.48,0,.81.46.81,1.12a1,1,0,0,1-.88,1.1h-.22Zm-1.78-4.24V102a12.21,12.21,0,0,0,1.4.09,3.56,3.56,0,0,0,2.64-.86,2.47,2.47,0,0,0,.68-1.84A2.27,2.27,0,0,0,170.21,97a3.68,3.68,0,0,0-.56.06V94.2Zm-5.66,1.55h1v4.67h-1.46A11,11,0,0,0,162,99a17.7,17.7,0,0,0,.18-2.43Zm-1.64-1.55v2.06a14.33,14.33,0,0,1-.21,2.51,9.41,9.41,0,0,1-.49,1.69l-.56,0,.07,3.22h1.33l.07-1.73h3.35l.07,1.73h1.33l.07-3.22-.64,0V94.2Zm-5.43,6.33c-.52,0-.79-.93-.77-2.48,0-1.38.25-2.39.77-2.39s.73,1,.73,2.35c0,1.59-.23,2.52-.71,2.52Zm0,1.54c1.56,0,2.62-1.21,2.62-4.15,0-1.48-.42-3.81-2.53-3.81-1.88,0-2.69,2-2.69,4s.63,4,2.59,4Zm-4.21-.09L149.4,98.1l1.43-3.9h-1.78l-.28,1.27-.29,1.27h0c-.09-.41-.19-.83-.31-1.26l-.34-1.28h-1.86l1.33,3.8-1.39,4h1.75l.31-1.21c.1-.46.21-.94.32-1.42h0c.12.48.24.92.39,1.38l.4,1.25Zm-9.67,0H143V95.87h1.36V94.2h-4.49v1.67h1.35Zm-5.69-1.45c-.52,0-.8-.93-.77-2.48,0-1.38.25-2.39.77-2.39s.73,1,.73,2.35c0,1.59-.23,2.52-.72,2.52Zm0,1.54c1.55,0,2.61-1.21,2.61-4.15,0-1.48-.41-3.81-2.52-3.81-1.88,0-2.69,2-2.69,4s.62,4,2.58,4Zm-8.65-4.87h-1.7V95.75H127V94.2h-3.57V102h3.69v-1.55h-1.9V98.68h1.7ZM118.78,102h1.79V94.21h-1.79Zm-3.45-3.54a1,1,0,0,1,.29,0c.49,0,.81.46.81,1.12a1,1,0,0,1-.88,1.1h-.22Zm-1.77-4.24V102a11.88,11.88,0,0,0,1.39.09,3.56,3.56,0,0,0,2.64-.86,2.47,2.47,0,0,0,.68-1.84A2.27,2.27,0,0,0,115.89,97a3.81,3.81,0,0,0-.57.06V94.2Zm-7.71,0V102h1.79V98.89H109V102h1.78V94.2H109v3h-1.32v-3Zm-7.7,0V102h1.79V98.89h1.31V102H103V94.2h-1.79v3H99.94v-3Zm-5.36,4.87L93,97.6c.07-.42.18-1.28.26-1.77h0c.07.49.17,1.33.23,1.77l.19,1.47Zm1.08,1.37.26,1.54h1.73L94.44,94.2H92.27L90.62,102h1.73l.27-1.54ZM81,94.2V102h7.43V94.2H86.69v6.22H85.6V94.2H83.85v6.22H82.77V94.2Zm-2.76,3h-1.7V95.75h1.78V94.2H74.76V102h3.69v-1.55h-1.9V98.68h1.7ZM70.63,102h1.58l-.48-7.78H69.87l-.49,2.51c-.19,1-.36,1.89-.46,2.74h0c-.12-.88-.32-1.78-.52-2.74l-.49-2.51H66l-.6,7.78h1.51l.13-2.44c0-.62.09-1.55.12-2.37h0c.1.82.3,1.78.4,2.25l.53,2.4h1.29l.56-2.4c.1-.47.31-1.43.44-2.25h0c0,.82,0,1.75.07,2.37Zm-7.4-1.6a3.6,3.6,0,0,1-.69.09c-.9,0-1.54-.71-1.54-2.33s.69-2.45,1.56-2.45a1.48,1.48,0,0,1,.67.15l.28-1.5a2.4,2.4,0,0,0-1.1-.2c-1.62,0-3.3,1.21-3.3,4.08,0,2,.89,3.83,3.08,3.83a3.4,3.4,0,0,0,1.19-.17Z" transform="translate(56.09 15.99)"/><path class="cls-43" d="M104.6,108.37H67a7.15,7.15,0,0,0-7.14,7.14v37.63A7.14,7.14,0,0,0,67,160.28H104.6a7.15,7.15,0,0,0,7.14-7.14V115.51a7.17,7.17,0,0,0-7.14-7.14M67,106.94H104.6a8.6,8.6,0,0,1,8.57,8.57v37.63a8.59,8.59,0,0,1-8.57,8.57H67a8.57,8.57,0,0,1-8.57-8.57V115.51A8.59,8.59,0,0,1,67,106.94" transform="translate(56.09 15.99)"/><path class="cls-43" d="M104.6,169.89H67A7.15,7.15,0,0,0,59.83,177v37.63A7.15,7.15,0,0,0,67,221.8H104.6a7.17,7.17,0,0,0,7.14-7.14V177a7.17,7.17,0,0,0-7.14-7.14M67,168.46H104.6a8.6,8.6,0,0,1,8.57,8.57v37.63a8.6,8.6,0,0,1-8.57,8.57H67a8.59,8.59,0,0,1-8.57-8.57V177A8.59,8.59,0,0,1,67,168.46" transform="translate(56.09 15.99)"/><path class="cls-43" d="M167.05,108.37H129.42a7.15,7.15,0,0,0-7.14,7.14v37.63a7.14,7.14,0,0,0,7.14,7.14h37.63a7.15,7.15,0,0,0,7.14-7.14V115.51a7.17,7.17,0,0,0-7.14-7.14m-37.63-1.43h37.63a8.6,8.6,0,0,1,8.57,8.57v37.63a8.59,8.59,0,0,1-8.57,8.57H129.42a8.57,8.57,0,0,1-8.57-8.57V115.51a8.59,8.59,0,0,1,8.57-8.57" transform="translate(56.09 15.99)"/><path class="cls-42" d="M128.25,169.79h40a6.12,6.12,0,0,1,6.1,6.1v39.94a6.11,6.11,0,0,1-6.1,6.1h-40a6.12,6.12,0,0,1-6.11-6.1V175.89a6.13,6.13,0,0,1,6.11-6.1m0-1.3h40a7.42,7.42,0,0,1,7.4,7.4v39.94a7.42,7.42,0,0,1-7.4,7.4h-40a7.42,7.42,0,0,1-7.4-7.4V175.89a7.42,7.42,0,0,1,7.4-7.4" transform="translate(56.09 15.99)"/><path class="cls-44" d="M140.91,212.19h0a1.43,1.43,0,0,1,.82.21,6.27,6.27,0,0,0,3.64,1.46c1.1,0,2.66-.61,4.8-1.51l2.27-.93c3-1.18,9.18-6,10.38-7.32a36.88,36.88,0,0,0,3.7-5.94,6.71,6.71,0,0,1-5.18-.66,7.09,7.09,0,0,1-3.37-3.31,46.38,46.38,0,0,0-1.61,4.66c-.06.21-.08.49-.14.79a10.68,10.68,0,0,1-1,3.42c0,.06-.3.44-.66.93a1.47,1.47,0,0,1-.16.28c-.08.11-.19.27-.36.49s-.6.82-1,1.43c-.76,1-1.56,2.05-1.56,2.08a.62.62,0,1,1-1-.77c.65-.88,1.5-2.05,2.21-3a2.86,2.86,0,0,1-.54-.11c-.58-.19-.74-.14-.8-.11a2,2,0,0,0-.33.52c-.49.93-1.28,2.47-4.79,3.26-.19.06-.27,0-.74-.19-4.38-1.89-6.38-2.11-7.29-2H138l2.41,6.38a3.62,3.62,0,0,1,.55-.05m4.6,2.9h-.19a7.45,7.45,0,0,1-4.3-1.67,6.82,6.82,0,0,0-.91.11.59.59,0,0,1-.71-.39l-2.93-7.67a.56.56,0,0,1,.08-.57.63.63,0,0,1,.52-.28c.36,0,.83,0,1,0,1.56-.24,4.19.44,8,2.09a.37.37,0,0,1,.17,0c2.76-.68,3.34-1.75,3.75-2.57s1-1.54,2.6-1a2.47,2.47,0,0,0,1.13,0c.3-.41.49-.68.54-.77a9.41,9.41,0,0,0,.8-3c0-.33.11-.63.16-.85a68.29,68.29,0,0,1,2.47-6.82.61.61,0,0,1,.74-.38.61.61,0,0,1,.44.68c0,.11-.25,2.57,3.12,4.3s5.56-.06,5.67-.14a.61.61,0,0,1,.79-.05.67.67,0,0,1,.17.79c-.11.22-3,6-4.82,8-1.26,1.42-7.67,6.38-10.82,7.64-.82.33-1.59.63-2.25.93-2.22.93-3.83,1.59-5.15,1.59" transform="translate(56.09 15.99)"/><path class="cls-44" d="M157.78,205.89a.51.51,0,0,1-.22-.06.6.6,0,0,1-.35-.8c.71-1.78,3-4.62,5.12-3.94a.64.64,0,0,1,.41.8.62.62,0,0,1-.79.38c-1-.33-2.91,1.53-3.59,3.2a.62.62,0,0,1-.58.42" transform="translate(56.09 15.99)"/><path class="cls-44" d="M150.77,211.69l-.16,0a5,5,0,0,1-2.41-1.78,7.66,7.66,0,0,0-2.36-1.91.61.61,0,0,1-.27-.83.62.62,0,0,1,.82-.3,8.76,8.76,0,0,1,2.74,2.22,3.62,3.62,0,0,0,1.83,1.4.61.61,0,0,1,.41.77.64.64,0,0,1-.6.46" transform="translate(56.09 15.99)"/><path class="cls-44" d="M142.11,213.25a.61.61,0,0,1-.57-.38l-1.56-3.7a.61.61,0,1,1,1.12-.46l1.59,3.69a.59.59,0,0,1-.33.8.43.43,0,0,1-.25.05" transform="translate(56.09 15.99)"/><path class="cls-44" d="M139.81,207.83a.66.66,0,0,1-.57-.38l-.52-1.18a.66.66,0,0,1,.33-.82.61.61,0,0,1,.82.32l.52,1.18a.66.66,0,0,1-.33.82.71.71,0,0,1-.25.06" transform="translate(56.09 15.99)"/><path class="cls-44" d="M141.68,201.17h0s0,0,0,0l.44-1,3.65-.17a.68.68,0,0,0,.49-.27l2.3-3.23,1.1.3s.1,0,.16,0a.65.65,0,0,0,.6-.47.64.64,0,0,0-.44-.77l-1.2-.33-.93-2.35L149,191a6.48,6.48,0,0,1,2.44,1.2c.3.28.58.52.82.77-.11.38-.24.74-.38,1.09a11.83,11.83,0,0,1-10.16,7.15m-1.13-.54h0a.61.61,0,0,0,.06.57,12.32,12.32,0,0,1-4.27-.93,11.84,11.84,0,0,1-6.25-15.5,10.43,10.43,0,0,1,1-1.87.21.21,0,0,0,.13,0h.08l2.14-.25.6,3.59a.8.8,0,0,0,.17.33L132.06,190a.58.58,0,0,0-.3-.08l-1.64-.08a.61.61,0,0,0-.63.6.63.63,0,0,0,.57.66l1.65.05h0a1.08,1.08,0,0,0,.28-.05l2.11,4.1a.49.49,0,0,0-.25.22l-1,1.57a.59.59,0,0,0,.2.84.62.62,0,0,0,.32.09.57.57,0,0,0,.52-.28l1-1.56a.39.39,0,0,0,.08-.25l4.11.53,1.92,3.2Zm-4.35-22h0l.19.9-2.68,1.94-1.65.17a11.59,11.59,0,0,1,4.14-3m5,1.78h0l.77,2.24-2.44,3.78a.91.91,0,0,0-.11.25l-4.16-.52v-.06l-.66-3.75,2.66-1.92Zm-1.15-2.77h0a6.76,6.76,0,0,0,1.62,1.12l-.33.41h-3.78l-.19-1a11.3,11.3,0,0,1,2.68-.55m4.77,2.41h0c-.44.44-.58,1.26-.39,2.63l-1.28-.44-.8-2.33.6-.79a4.13,4.13,0,0,1,1.87.93m1.42,4.9h0a2.56,2.56,0,0,1,1.43-.27,1.79,1.79,0,0,1,.6.27c.38.28-1.29,1.21-1.73,1.43s-.63-.06-.74-.47a.87.87,0,0,1,.44-1m1.37,10.71h0l-2.19,3.07-3.37.17-1.81-3,2.06-3.29a.78.78,0,0,0,.24.09l4.19.68Zm-.77-3.53h0l-4.11-.66a.74.74,0,0,0-.27,0l-2.14-4.19a.45.45,0,0,0,.25-.19l2.33-3.65,1.75.61a16.62,16.62,0,0,0,.55,2.05,3.14,3.14,0,0,0-.14.38,4.49,4.49,0,0,0-.41,2.36c.11,1.2,1.43,1.48,2.8,1.75a.71.71,0,0,0,.24.06Zm1.73-3.73h0a2,2,0,0,0,1.37-.27.79.79,0,0,1,1,.3.78.78,0,0,1-.3,1,3.94,3.94,0,0,1-1.81.52,2.15,2.15,0,0,1-.85-.16,2.05,2.05,0,0,1-1.23-1.23.76.76,0,0,1,.46-1,.75.75,0,0,1,1,.44.52.52,0,0,0,.33.35m4.49.09h0c-.3-.2-.68-.39-1.09-.61a5,5,0,0,1-2.06-1.37,4.39,4.39,0,0,1-.38-.82c-.3-.68-.71-1.64-1.92-1.59a2.18,2.18,0,0,0-.49.06c0-.06,0-.11.05-.19a5.3,5.3,0,0,1,.36-1,1.9,1.9,0,0,0-.25-2.44.83.83,0,0,1-.22-.25v-.11a1,1,0,0,0-.3-1.07,23.45,23.45,0,0,0-6.16-2.65,1.59,1.59,0,0,0-.36,0,12.93,12.93,0,0,0-4.16.93,13.06,13.06,0,0,0-.25,24.13,12.82,12.82,0,0,0,5.1,1,13,13,0,0,0,12-7.91,11.56,11.56,0,0,0,.44-1.18.14.14,0,0,1-.06-.11.6.6,0,0,0,.2-.36,17.62,17.62,0,0,0,.22-1.78c.08-1.45-.14-2.3-.69-2.65" transform="translate(56.09 15.99)"/><path class="cls-44" d="M165.92,196.63a.64.64,0,0,1-.61-.44l-.29-1a.59.59,0,0,1,.41-.76.59.59,0,0,1,.76.41l.3,1a.6.6,0,0,1-.41.77.3.3,0,0,1-.16,0" transform="translate(56.09 15.99)"/><path class="cls-44" d="M164.79,190h0l-1.34,2.47a.56.56,0,0,1-.46.27.46.46,0,0,1-.28-.08.55.55,0,0,1-.22-.71l1.35-2.47a.56.56,0,0,1,.74-.22.54.54,0,0,1,.21.74m2.31-1.39a2.44,2.44,0,0,0-1.07-.74,3,3,0,0,0-1.34-.19.63.63,0,0,0-.47.3l-2.44,3.72c-.3,2,3.4,3.4,4.66,1.81l.79-4.38a.66.66,0,0,0-.13-.52" transform="translate(56.09 15.99)"/><path class="cls-44" d="M158.19,192.63a.88.88,0,0,1-.27-.06.66.66,0,0,1-.27-.85,2.16,2.16,0,0,1,1.45-1.31.49.49,0,0,1,.6.52l0,.27a.51.51,0,0,1-.33.44.91.91,0,0,0-.57.6.67.67,0,0,1-.58.39" transform="translate(56.09 15.99)"/><path class="cls-44" d="M168,197.31a.75.75,0,0,1-.41-.14.61.61,0,0,1-.08-.84,3.49,3.49,0,0,0-.22-.91.62.62,0,0,1,.35-.79.63.63,0,0,1,.83.35c.16.44.52,1.51,0,2.11a.65.65,0,0,1-.47.22" transform="translate(56.09 15.99)"/></g></g></g></svg>